<?xml version="1.0" encoding="UTF-8" standalone="no"?><!DOCTYPE svg PUBLIC "-//W3C//DTD SVG 1.1//EN" "http://www.w3.org/Graphics/SVG/1.1/DTD/svg11.dtd"><svg width="100%" height="100%" viewBox="0 0 1401 981" version="1.1" xmlns="http://www.w3.org/2000/svg" xmlns:xlink="http://www.w3.org/1999/xlink" xml:space="preserve" style="fill-rule:evenodd;clip-rule:evenodd;stroke-linejoin:round;stroke-miterlimit:1.41421;"><g><rect x="0.124" y="0" width="1399" height="633" style="fill:#bbd7cc;fill-rule:nonzero;"/><path d="M0.124,456.245l-0.124,143.755l1399.12,0l0,-177l-108.12,53.412l-115.98,-75.51l-128.451,123.098l-104.487,-62.176l-45.606,26.983l-90.553,-43.684l-62.366,79.084l-145.623,-101.336l-47.095,48.059l-112.426,-26.079l-34.505,26.079l-93.243,-160.579l-134.46,134.772l-51.351,-112.252l-71.622,90l-28.149,-22.781l-24.959,56.155Z" style="fill:#99baac;fill-rule:nonzero;"/><path d="M0,598l0,-138.151l0.121,0.047l-0.12,138.104" style="fill:#a5bdb2;fill-rule:nonzero;"/><path d="M743.557,524.207l-26.759,-18.621l72.495,-39.375l-45.736,57.996Zm152.919,-35.4l-0.411,-0.198l1.073,-0.194l-0.662,0.392Zm120.114,-20.282l71.87,-96.601l64.3,50.308l-36.12,34.619l-53.86,-15.83l-46.19,27.504Zm243.83,-55.391l13.85,-23.632l8.44,8.279l-22.29,15.353Z" style="fill:#91b0a4;fill-rule:nonzero;"/><path d="M799.154,598l-799.154,0l0.121,-138.104l108,41.642l115.983,-58.937l128.448,96.08l104.491,-48.53l45.606,21.061l90.553,-34.096l62.366,61.727l61.23,-33.257l26.759,18.621l45.736,-57.996l11.899,-6.463l47.094,37.512l47.779,-8.651l0.411,0.198l0.662,-0.392l63.575,-11.511l21.002,12.39l-182.561,108.706Zm373.766,-124.607l-56.28,-16.542l36.12,-34.619l44.22,34.591l-24.06,16.57Z" style="fill:#87a899;fill-rule:nonzero;"/><path d="M1205.58,324.871c-3.89,0 -7.41,-1.871 -10.01,-4.871l-0.14,0c-2.29,0 -4.34,-1.054 -5.75,-2.912c-1.9,3.303 -5.13,5.589 -8.78,5.589c-5.85,0 -10.59,-5.578 -10.59,-12.419l0.01,-0.258c-2.57,0 -4.73,-2.375 -4.73,-5.387c0,-3.01 2.02,-5.386 4.59,-5.386c0.16,0 0.18,0.009 0.33,0.028c0.95,-2.86 3.61,-4.958 5.61,-5.294l0,-0.047c0,-3.576 2.76,-6.475 5.81,-6.475c1.51,0 3.16,0.709 4.16,1.857c0.62,-0.505 1.3,-0.921 2.03,-1.229c1.2,-5.05 5.15,-8.758 9.85,-8.758c4.38,0 8.12,3.232 9.57,7.77c2.29,-1.613 4.98,-2.543 7.85,-2.543c7.11,0 13.09,5.71 14.77,13.43c2.42,0.231 4.51,1.889 5.63,4.258c0.85,-1.124 2.09,-1.836 3.48,-1.836c2.57,0 4.65,2.439 4.65,5.45c0,3.011 -2.08,5.45 -4.65,5.45c-1.27,0 -2.41,-0.595 -3.25,-1.55c-1.13,2.848 -3.59,4.817 -6.45,4.817c-0.92,0 -1.8,-0.225 -2.61,-0.601c-2.75,3.747 -6.8,6.109 -11.33,6.194c-2.59,2.961 -6.14,4.723 -10.05,4.723Z" style="fill:#eaf4f0;fill-rule:nonzero;"/><path d="M574.079,249.796c-7.409,-1.466 -14.059,-4.2 -19.443,-7.845c-0.152,0.002 -0.302,0.021 -0.454,0.021c-7.313,0 -13.876,-2.215 -18.375,-5.767c-6.071,6.314 -16.369,10.518 -28.055,10.518c-18.666,0 -33.799,-10.493 -33.799,-23.563c0,-0.123 0.012,-0.16 0.014,-0.16l-0.008,0c-8.215,0 -14.875,-4.87 -14.875,-10.624c0,-5.753 6.66,-10.623 14.875,-10.623c0.515,0 1.022,0.017 1.523,0.054c3.014,-5.463 10.194,-9.472 18.815,-10.114l-0.003,-0.092c0,-6.832 7.909,-12.369 17.665,-12.369c4.822,0 9.19,1.354 12.379,3.547c1.992,-0.964 4.166,-1.759 6.482,-2.347c3.828,-9.65 16.456,-16.734 31.455,-16.734c14.003,0 25.943,6.174 30.582,14.846c5.984,-2.521 12.804,-4.168 20.102,-4.686c-18.89,21.213 -32.532,47.208 -38.88,75.938Z" style="fill:#eaf4f0;fill-rule:nonzero;"/><path d="M1104.83,132.871c-6.51,0 -12.4,-1.871 -16.74,-4.871l-0.23,0c-3.83,0 -7.27,-1.054 -9.62,-2.912c-3.18,3.304 -8.57,5.589 -14.68,5.589c-9.77,0 -17.69,-5.578 -17.69,-12.419l0,-0.258c-4.301,0 -7.84,-2.375 -7.84,-5.387c0,-3.011 3.44,-5.386 7.74,-5.386c0.27,0 0.439,0.009 0.7,0.028c1.58,-2.859 5.66,-4.958 9.66,-5.294l0,-0.048c0,-3.575 4.33,-6.473 9.43,-6.473c2.53,0 5.01,0.709 6.68,1.857c1.04,-0.505 2.18,-0.921 3.39,-1.229c2,-5.05 8.61,-8.759 16.46,-8.759c7.33,0 13.58,3.233 16.01,7.771c3.83,-1.614 8.32,-2.544 13.11,-2.544c11.9,0 21.89,5.711 24.7,13.43c4.05,0.231 7.54,1.889 9.41,4.258c1.43,-1.124 3.5,-1.836 5.82,-1.836c4.3,0 7.78,2.439 7.78,5.45c0,3.011 -3.48,5.45 -7.78,5.45c-2.11,0 -4.03,-0.595 -5.43,-1.55c-1.88,2.848 -6,4.817 -10.78,4.817c-1.55,0 -3.02,-0.225 -4.37,-0.601c-4.59,3.747 -11.36,6.11 -18.93,6.194c-4.34,2.961 -10.27,4.723 -16.8,4.723Z" style="fill:#eaf4f0;fill-rule:nonzero;"/><path d="M0,610l176.205,-293.42l227.703,156.813l110.135,-32.372l283.784,168.979l-797.827,0Z" style="fill:#513e26;fill-rule:nonzero;"/><path d="M1400.12,610l0.5,-293.42l-227.7,156.813l-110.14,-32.372l-283.779,168.979l621.119,0Z" style="fill:#513e26;fill-rule:nonzero;"/><path d="M182.355,335.469l233.202,224.654l-16.643,-70.123l-216.559,-154.531Z" style="fill:#614c32;fill-rule:nonzero;"/><path d="M514.973,462.931l97.725,53.069l-44.573,0l-53.152,-53.069Z" style="fill:#614c32;fill-rule:nonzero;"/><path d="M343.631,516.207l48.79,55.793l-35.296,0l-13.494,-55.793Z" style="fill:#614c32;fill-rule:nonzero;"/><path d="M1385.86,348.598l-211.53,141.402l-11.67,35.648l223.2,-177.05Z" style="fill:#614c32;fill-rule:nonzero;"/><path d="M1069.07,453.824l-44.991,29.176l17.051,0l27.94,-29.176Z" style="fill:#614c32;fill-rule:nonzero;"/><path d="M986.148,503l-79.089,49.091l45.496,19.736l59.855,-68.827l-26.262,0Z" style="fill:#614c32;fill-rule:nonzero;"/><path d="M0,601.072c0,0 96.482,-77.679 206.021,-52.174c109.538,25.506 166.396,104.237 298.893,30.32c87.508,-48.82 204.216,-58.905 340.8,-12.799c136.583,46.107 179.865,43.142 267.766,0.959c0,0 79.29,-58.871 160.43,-2.954c81.14,55.916 126.22,26.474 126.22,26.474l0,390.102l-1400.01,0l-0.125,-379.928Z" style="fill:#094e7b;fill-rule:nonzero;"/><path d="M1400.13,624.942c0,0 -105.25,-97.104 -206.03,-48.894c-135.07,64.623 -201.522,52.317 -298.888,28.414c-97.368,-23.902 -204.216,-55.204 -340.8,-11.994c-136.584,43.21 -179.866,40.431 -267.767,0.898c0,0 -67.785,-31.838 -160.43,-2.768c-91.878,28.828 -126.215,24.811 -126.215,24.811l0,365.591l1400,0l0.13,-356.058Z" style="fill:#1c7aa6;fill-rule:nonzero;"/><path d="M0,650.407c0,0 96.482,-67.592 206.021,-45.397c109.538,22.193 156.93,88.999 298.893,26.382c91.104,-40.185 204.216,-51.257 340.8,-11.137c136.583,40.12 179.865,37.54 267.766,0.835c0,0 79.29,-51.228 160.43,-2.571c81.14,48.655 126.22,23.037 126.22,23.037l0,339.444l-1400.01,0l-0.125,-330.593Z" style="fill:#094e7b;fill-rule:nonzero;"/><path d="M1400.13,669.275c0,0 -100.02,-76.624 -209.56,-55.696c-109.54,20.927 -212.316,92.127 -309.682,71.2c-97.367,-20.926 -189.892,-81.765 -326.476,-43.935c-136.584,37.83 -206.337,86.129 -273.953,28.113c0,0 -73.106,-75.63 -154.244,-29.75c-81.138,45.877 -126.215,21.722 -126.215,21.722l0,320.071l1400,0l0.13,-311.725Z" style="fill:#1b7092;fill-rule:nonzero;"/><path d="M0,725.056c0,0 96.482,-52.331 206.021,-35.148c109.538,17.182 166.396,70.22 298.893,20.425c87.508,-32.889 204.216,-39.683 340.8,-8.622c136.583,31.06 179.865,29.063 267.766,0.645c0,0 79.29,-39.659 160.43,-1.99c81.14,37.669 126.22,17.835 126.22,17.835l0,262.799l-1400.01,0l-0.125,-255.944Z" style="fill:#094e7b;fill-rule:nonzero;"/><path d="M1273.91,700.366c-81.14,-37.669 -160.43,1.99 -160.43,1.99c-87.901,28.418 -131.183,30.415 -267.766,-0.645c-136.584,-31.061 -253.292,-24.267 -340.8,8.622c-132.497,49.795 -189.355,-3.243 -298.893,-20.425c-109.539,-17.183 -206.021,35.148 -206.021,35.148l0.011,46.754c0.489,-0.265 96.75,-75.624 206.01,-58.485c109.538,17.182 177.245,54.592 309.742,4.797c87.508,-32.888 193.367,-24.054 329.951,7.006c93.835,21.339 178.386,3.903 271.826,-7.006c42.57,-4.97 79.79,-36.427 142,-9.608c82.19,35.434 140.59,33.105 140.59,33.105l0,-23.418c0,0 -45.08,19.834 -126.22,-17.835Z" style="fill:#52bbe4;fill-rule:nonzero;"/><path d="M101.881,794.004c0,3.277 -2.723,5.934 -6.082,5.934c-3.358,0 -6.081,-2.657 -6.081,-5.934c0,-3.277 2.723,-5.934 6.081,-5.934c3.359,0 6.082,2.657 6.082,5.934Z" style="fill:#52bbe4;fill-rule:nonzero;"/><path d="M176.205,856.399c0,13.836 -11.495,25.052 -25.676,25.052c-14.18,0 -25.675,-11.216 -25.675,-25.052c0,-13.835 11.495,-25.051 25.675,-25.051c14.181,0 25.676,11.216 25.676,25.051Z" style="fill:#52bbe4;fill-rule:nonzero;"/><path d="M568.097,805.212c0,2.912 -2.42,5.274 -5.406,5.274c-2.985,0 -5.405,-2.362 -5.405,-5.274c0,-2.913 2.42,-5.274 5.405,-5.274c2.986,0 5.406,2.361 5.406,5.274Z" style="fill:#52bbe4;fill-rule:nonzero;"/><path d="M761.556,784.67c0,14.259 -11.847,25.816 -26.459,25.816c-14.614,0 -26.459,-11.557 -26.459,-25.816c0,-14.257 11.845,-25.816 26.459,-25.816c14.612,0 26.459,11.559 26.459,25.816Z" style="fill:#52bbe4;fill-rule:nonzero;"/><path d="M917.641,815.537c0,5.702 -4.739,10.325 -10.583,10.325c-5.844,0 -10.582,-4.623 -10.582,-10.325c0,-5.702 4.738,-10.325 10.582,-10.325c5.844,0 10.583,4.623 10.583,10.325Z" style="fill:#52bbe4;fill-rule:nonzero;"/><path d="M1250.07,825.426c0,14.078 -11.69,25.489 -26.12,25.489c-14.43,0 -26.12,-11.411 -26.12,-25.489c0,-14.077 11.69,-25.488 26.12,-25.488c14.43,0 26.12,11.411 26.12,25.488Z" style="fill:#52bbe4;fill-rule:nonzero;"/><path d="M720.8,904.315c0,3.277 -2.723,5.933 -6.081,5.933c-3.359,0 -6.081,-2.656 -6.081,-5.933c0,-3.277 2.722,-5.933 6.081,-5.933c3.358,0 6.081,2.656 6.081,5.933Z" style="fill:#52bbe4;fill-rule:nonzero;"/><path d="M437.016,832.242c0,17.841 -14.823,32.303 -33.108,32.303c-18.285,0 -33.108,-14.462 -33.108,-32.303c0,-17.842 14.823,-32.304 33.108,-32.304c18.285,0 33.108,14.462 33.108,32.304Z" style="fill:#52bbe4;fill-rule:nonzero;"/><path d="M439.72,916.182c0,3.278 -2.723,5.934 -6.082,5.934c-3.359,0 -6.081,-2.656 -6.081,-5.934c0,-3.277 2.722,-5.934 6.081,-5.934c3.359,0 6.082,2.657 6.082,5.934Z" style="fill:#52bbe4;fill-rule:nonzero;"/><path d="M427.72,825.44c0,3.278 -2.723,5.935 -6.082,5.935c-3.359,0 -6.081,-2.657 -6.081,-5.935c0,-3.276 2.722,-5.933 6.081,-5.933c3.359,0 6.082,2.657 6.082,5.933Z" style="fill:#fff;fill-rule:nonzero;"/><path d="M755.72,784.461c0,3.277 -2.723,5.934 -6.081,5.934c-3.36,0 -6.082,-2.657 -6.082,-5.934c0,-3.277 2.722,-5.934 6.082,-5.934c3.358,0 6.081,2.657 6.081,5.934Z" style="fill:#fff;fill-rule:nonzero;"/><path d="M1140.72,872.274c0,3.279 -2.72,5.935 -6.08,5.935c-3.36,0 -6.08,-2.656 -6.08,-5.935c0,-3.276 2.72,-5.932 6.08,-5.932c3.36,0 6.08,2.656 6.08,5.932Z" style="fill:#fff;fill-rule:nonzero;"/><path d="M343.773,942.553c0,17.841 -14.823,32.303 -33.108,32.303c-18.285,0 -33.108,-14.462 -33.108,-32.303c0,-17.841 14.823,-32.305 33.108,-32.305c18.285,0 33.108,14.464 33.108,32.305Z" style="fill:#52bbe4;fill-rule:nonzero;"/><path d="M952.555,932.334c0,5.644 -4.689,10.219 -10.472,10.219c-5.784,0 -10.473,-4.575 -10.473,-10.219c0,-5.644 4.689,-10.218 10.473,-10.218c5.783,0 10.472,4.574 10.472,10.218Z" style="fill:#52bbe4;fill-rule:nonzero;"/><path d="M1134.99,877.614c0,14.746 -12.25,26.701 -27.36,26.701c-15.12,0 -27.37,-11.955 -27.37,-26.701c0,-14.745 12.25,-26.699 27.37,-26.699c15.11,0 27.36,11.954 27.36,26.699Z" style="fill:#52bbe4;fill-rule:nonzero;"/><path d="M1262.24,916.182c0,3.278 -2.73,5.934 -6.09,5.934c-3.35,0 -6.08,-2.656 -6.08,-5.934c0,-3.277 2.73,-5.934 6.08,-5.934c3.36,0 6.09,2.657 6.09,5.934Z" style="fill:#52bbe4;fill-rule:nonzero;"/><path d="M1395.12,866.736c0,14.565 -12.1,26.371 -27.02,26.371c-14.93,0 -27.03,-11.806 -27.03,-26.371c0,-14.562 12.1,-26.369 27.03,-26.369c14.92,0 27.02,11.807 27.02,26.369Z" style="fill:#52bbe4;fill-rule:nonzero;"/><path d="M77.557,910.249c0,6.554 -5.445,11.867 -12.163,11.867c-6.717,0 -12.162,-5.313 -12.162,-11.867c0,-6.555 5.445,-11.867 12.162,-11.867c6.718,0 12.163,5.312 12.163,11.867Z" style="fill:#52bbe4;fill-rule:nonzero;"/><path d="M149.179,944.201c0,6.554 -5.446,11.867 -12.163,11.867c-6.718,0 -12.162,-5.313 -12.162,-11.867c0,-6.554 5.444,-11.867 12.162,-11.867c6.717,0 12.163,5.313 12.163,11.867Z" style="fill:#52bbe4;fill-rule:nonzero;"/><path d="M909.049,286.528c0,93.601 -75.88,169.48 -169.481,169.48c-93.602,0 -169.481,-75.879 -169.481,-169.48c0,-93.602 75.879,-169.481 169.481,-169.481c93.601,0 169.481,75.879 169.481,169.481Z" style="fill:#f3ba18;fill-rule:nonzero;"/><path d="M152.604,243.367c-12.425,0 -23.692,-4.93 -31.968,-12.934c-0.152,0.003 -0.302,0.018 -0.454,0.018c-7.313,0 -13.876,-3.187 -18.375,-8.259c-6.071,9.015 -16.37,14.973 -28.056,14.973c-18.666,0 -33.798,-15.08 -33.798,-33.745c0,-0.176 0.011,-0.42 0.013,-0.42l-0.007,0c-8.216,0 -14.876,-6.764 -14.876,-14.98c0,-8.215 6.66,-14.98 14.876,-14.98c0.514,0 1.022,0.026 1.523,0.078c3.014,-7.801 10.194,-13.527 18.815,-14.443l-0.004,-0.131c0,-9.755 7.91,-17.664 17.665,-17.664c4.822,0 9.191,1.935 12.379,5.067c1.993,-1.378 4.167,-2.512 6.483,-3.353c3.828,-13.779 16.456,-23.896 31.454,-23.896c14.004,0 25.944,8.818 30.583,21.201c7.321,-4.404 15.893,-6.941 25.059,-6.941c22.73,0 41.819,15.58 47.178,36.642c7.753,0.632 14.402,5.155 17.989,11.618c2.725,-3.066 6.686,-5.009 11.111,-5.009c8.216,0 14.876,6.66 14.876,14.876c0,8.215 -6.66,14.875 -14.876,14.875c-4.034,0 -7.688,-1.611 -10.368,-4.219c-3.601,7.773 -11.468,13.167 -20.598,13.167c-2.953,0 -5.771,-0.569 -8.358,-1.595c-8.769,10.221 -21.698,16.76 -36.167,16.99c-8.29,8.079 -19.61,13.064 -32.099,13.064Z" style="fill:#eaf4f0;fill-rule:nonzero;"/><path d="M898.414,345.749c6.875,-18.433 10.635,-38.392 10.635,-59.221c0,-5.41 -0.254,-10.77 -0.75,-16.05c4.902,-1.163 10.154,-1.794 15.617,-1.794c22.73,0 41.819,10.91 47.178,25.659c7.754,0.442 14.402,3.61 17.988,8.136c2.726,-2.147 6.687,-3.508 11.108,-3.508c8.22,0 14.88,4.664 14.88,10.417c0,5.753 -6.66,10.417 -14.88,10.417c-4.03,0 -7.684,-1.128 -10.364,-2.954c-3.601,5.443 -11.468,9.221 -20.598,9.221c-2.953,0 -5.771,-0.399 -8.359,-1.117c-8.769,7.158 -21.697,11.737 -36.166,11.899c-6.983,4.765 -16.117,7.995 -26.289,8.895Z" style="fill:#eaf4f0;fill-rule:nonzero;"/><path d="M892.604,346.004c-12.424,0 -23.69,-3.448 -31.968,-9.053c-0.152,0.002 -0.302,0.021 -0.454,0.021c-7.313,0 -13.876,-2.215 -18.375,-5.767c-6.071,6.313 -16.37,10.519 -28.055,10.519c-18.666,0 -33.799,-10.493 -33.799,-23.564c0,-0.123 0.012,-0.16 0.014,-0.16l-0.008,0c-8.215,0 -14.875,-4.87 -14.875,-10.624c0,-5.753 6.66,-10.624 14.875,-10.624c0.514,0 1.023,0.019 1.524,0.055c3.013,-5.463 10.193,-9.473 18.814,-10.114l-0.003,-0.092c0,-6.832 7.909,-12.369 17.665,-12.369c4.822,0 9.19,1.354 12.379,3.547c1.992,-0.965 4.166,-1.759 6.482,-2.347c3.828,-9.65 16.456,-16.734 31.455,-16.734c14.003,0 25.943,6.175 30.582,14.846c2.958,-1.246 6.119,-2.278 9.442,-3.066c0.496,5.28 0.75,10.64 0.75,16.05c0,20.829 -3.76,40.788 -10.635,59.221c-1.903,0.169 -3.842,0.255 -5.81,0.255Z" style="fill:#fbeab8;fill-rule:nonzero;"/><path d="M1310.35,359.742c-14.24,0 -25.79,-11.396 -25.79,-25.636c0,-0.075 0,-0.099 0.01,-0.106c-6.27,0 -11.35,-5.374 -11.35,-11.641c0,-6.268 5.08,-11.643 11.35,-11.643c0.39,0 0.78,0.02 1.16,0.059c2.3,-5.951 7.77,-10.319 14.35,-11.018l0,-0.1c0,-7.442 6.03,-13.476 13.48,-13.476c3.67,0 7.01,1.476 9.44,3.866c1.52,-1.051 3.18,-1.917 4.94,-2.558c2.92,-10.512 12.56,-18.23 24,-18.23c10.68,0 19.79,6.727 23.33,16.174c5.59,-3.36 12.13,-5.295 19.12,-5.295c1.6,0 3.18,0.103 4.73,0.3l0,37.174l-53.62,36.927c-5.47,-0.074 -10.37,-2.463 -13.75,-6.273c-4.63,6.879 -12.49,11.476 -21.4,11.476Z" style="fill:#f2f8f8;fill-rule:nonzero;"/><path d="M1370.5,364.374c-1.43,0 -2.83,-0.085 -4.22,-0.251l19.58,-15.525l-22.51,15.047c-6.62,-1.37 -12.56,-4.605 -17.24,-9.132c-0.11,0.002 -0.23,0.028 -0.34,0.028c-0.09,0 -0.18,-0.001 -0.27,-0.002l53.62,-36.927l0,36.492c-1.35,0.173 -2.73,0.278 -4.13,0.3c-6.33,6.164 -14.96,9.97 -24.49,9.97Z" style="fill:#ddd9d3;fill-rule:nonzero;"/><path d="M1366.28,364.123c-0.99,-0.118 -1.97,-0.279 -2.93,-0.478l22.51,-15.047l-19.58,15.525Z" style="fill:#dfdbd6;fill-rule:nonzero;"/><path d="M442.577,407.579l7.262,-51.053l-50.82,44.856l43.558,6.197Zm-4.164,29.272l-80.091,-11.393l-2.224,-26.358l104.751,-91.42l30.444,4.331l-14.291,100.465l22.013,3.131l-4.164,29.273l-22.013,-3.132l-5.03,35.362l-34.426,-4.897l5.031,-35.362Z" style="fill:#513e26;fill-rule:nonzero;"/><path d="M1128.2,383.488l13.96,-69.433l-73.2,57.522l59.24,11.911Zm-8,39.811l-108.93,-21.901l-0.98,-36.317l150.8,-117.14l41.41,8.325l-27.48,136.636l29.94,6.019l-8,39.812l-29.94,-6.02l-9.67,48.094l-46.82,-9.413l9.67,-48.095Z" style="fill:#513e26;fill-rule:nonzero;"/><path d="M360.147,395.567l-6.649,-11.45c0.214,-0.069 0.424,-0.122 0.627,-0.156l0,-0.047c0,-3.576 2.756,-6.474 5.81,-6.474c1.509,0 3.156,0.709 4.154,1.857c0.624,-0.506 1.305,-0.922 2.03,-1.229c1.199,-5.051 5.152,-8.759 9.847,-8.759c3.474,0 6.542,2.029 8.389,5.13l-24.208,21.128Z" style="fill:#eaf4f0;fill-rule:nonzero;"/><path d="M357.23,412.523c-5.052,-0.941 -8.915,-6.088 -8.915,-12.265l0.004,-0.258l-0.002,0c-2.571,0 -4.727,-2.375 -4.727,-5.387c0,-3.01 2.015,-5.387 4.587,-5.387c0.161,0 0.18,0.01 0.338,0.029c0.847,-2.57 3.087,-4.524 4.983,-5.138l6.649,11.45l-4.049,3.533l1.132,13.423Z" style="fill:#dfeae6;fill-rule:nonzero;"/><path d="M411.516,403.16l-12.497,-1.778l13.076,-11.541c0.684,0.661 1.26,1.469 1.693,2.383c0.852,-1.125 2.093,-1.836 3.479,-1.836c2.571,0 4.657,2.439 4.657,5.45c0,3.011 -2.086,5.45 -4.657,5.45c-1.264,0 -2.408,-0.595 -3.246,-1.55c-0.552,1.394 -1.424,2.577 -2.505,3.422Z" style="fill:#eaf4f0;fill-rule:nonzero;"/><path d="M383.583,414.871c-3.889,0 -7.417,-1.871 -10.008,-4.871l-0.142,0c-2.29,0 -4.345,-1.054 -5.753,-2.912c-1.901,3.304 -5.125,5.589 -8.783,5.589c-0.567,0 -1.124,-0.053 -1.667,-0.154l-1.132,-13.423l4.049,-3.533l24.208,-21.128c0.484,0.812 0.884,1.698 1.186,2.64c2.292,-1.613 4.975,-2.543 7.845,-2.543c7.116,0 13.092,5.71 14.77,13.43c1.491,0.142 2.851,0.822 3.939,1.875l-13.076,11.541l12.497,1.778c-1.128,0.882 -2.485,1.395 -3.944,1.395c-0.925,0 -1.807,-0.225 -2.617,-0.601c-2.745,3.747 -6.793,6.109 -11.323,6.194c-2.595,2.961 -6.139,4.723 -10.049,4.723Z" style="fill:#cac5bd;fill-rule:nonzero;"/><path d="M658.851,296.578l5.953,0l1.025,-6.151l-5.954,0l-1.024,6.151Zm14.546,4.888l-4.376,0l-0.984,5.913l-5.205,0l0.985,-5.913l-5.677,0l-1.025,5.913l-5.203,0l0.985,-5.913l-2.957,0l0,-5.047l3.825,0l1.025,-5.834l-3.471,0l0,-5.046l4.337,0l0.987,-5.757l5.203,0l-0.986,5.757l5.718,0l0.985,-5.757l5.204,0l-0.986,5.757l2.996,0l0,5.046l-3.862,0l-1.026,5.834l3.508,0l0,5.047Z" style="fill:#545555;fill-rule:nonzero;"/><path d="M679.469,279.782l20.776,0l0,5.402l-14.784,0l0,5.598l13.011,0l0,5.401l-13.011,0l0,5.795l14.982,0l0,5.401l-20.974,0l0,-27.597Z" style="fill:#545555;fill-rule:nonzero;"/><path d="M718.104,293.187c1.498,0 2.648,-0.353 3.45,-1.06c0.8,-0.705 1.202,-1.647 1.202,-2.823l0,-0.079c0,-1.308 -0.42,-2.288 -1.262,-2.943c-0.841,-0.653 -2.01,-0.98 -3.509,-0.98l-6.032,0l0,7.885l6.151,0Zm-12.221,-13.405l12.615,0c3.495,0 6.177,0.933 8.043,2.8c1.577,1.576 2.365,3.68 2.365,6.308l0,0.078c0,2.235 -0.546,4.054 -1.635,5.461c-1.092,1.406 -2.517,2.438 -4.279,3.094l6.742,9.856l-7.095,0l-5.915,-8.831l-4.771,0l0,8.831l-6.07,0l0,-27.597Z" style="fill:#545555;fill-rule:nonzero;"/><path d="M746.607,293.187c1.498,0 2.649,-0.353 3.45,-1.06c0.801,-0.705 1.203,-1.647 1.203,-2.823l0,-0.079c0,-1.308 -0.42,-2.288 -1.262,-2.943c-0.841,-0.653 -2.01,-0.98 -3.509,-0.98l-6.032,0l0,7.885l6.15,0Zm-12.221,-13.405l12.615,0c3.496,0 6.178,0.933 8.044,2.8c1.576,1.576 2.365,3.68 2.365,6.308l0,0.078c0,2.235 -0.546,4.054 -1.637,5.461c-1.09,1.406 -2.516,2.438 -4.277,3.094l6.742,9.856l-7.096,0l-5.914,-8.831l-4.771,0l0,8.831l-6.071,0l0,-27.597Z" style="fill:#545555;fill-rule:nonzero;"/><path d="M776.373,302.254c1.209,0 2.326,-0.223 3.352,-0.67c1.024,-0.446 1.897,-1.064 2.621,-1.853c0.722,-0.788 1.288,-1.701 1.695,-2.74c0.406,-1.038 0.611,-2.149 0.611,-3.331l0,-0.079c0,-1.183 -0.205,-2.3 -0.611,-3.351c-0.407,-1.051 -0.986,-1.971 -1.735,-2.76c-0.749,-0.788 -1.636,-1.412 -2.66,-1.873c-1.026,-0.459 -2.143,-0.689 -3.352,-0.689c-1.235,0 -2.359,0.223 -3.37,0.67c-1.013,0.447 -1.881,1.065 -2.604,1.853c-0.722,0.789 -1.287,1.702 -1.695,2.74c-0.407,1.038 -0.609,2.148 -0.609,3.331l0,0.079c0,1.183 0.202,2.3 0.609,3.351c0.408,1.051 0.987,1.971 1.735,2.759c0.749,0.789 1.629,1.414 2.642,1.873c1.012,0.46 2.136,0.69 3.371,0.69Zm-0.079,5.598c-2.129,0 -4.087,-0.373 -5.875,-1.123c-1.787,-0.749 -3.33,-1.76 -4.631,-3.036c-1.302,-1.274 -2.313,-2.773 -3.036,-4.494c-0.724,-1.721 -1.085,-3.568 -1.085,-5.539l0,-0.079c0,-1.971 0.369,-3.817 1.104,-5.539c0.736,-1.721 1.755,-3.233 3.055,-4.534c1.302,-1.301 2.852,-2.326 4.653,-3.075c1.799,-0.749 3.764,-1.124 5.894,-1.124c2.129,0 4.087,0.375 5.874,1.124c1.786,0.749 3.332,1.761 4.632,3.035c1.302,1.276 2.312,2.774 3.037,4.495c0.723,1.722 1.083,3.568 1.083,5.539l0,0.079c0,1.971 -0.368,3.818 -1.103,5.539c-0.737,1.722 -1.755,3.233 -3.056,4.534c-1.301,1.301 -2.853,2.326 -4.652,3.075c-1.801,0.75 -3.765,1.123 -5.894,1.123Z" style="fill:#545555;fill-rule:nonzero;"/><path d="M808.622,293.187c1.497,0 2.648,-0.353 3.449,-1.06c0.801,-0.705 1.202,-1.647 1.202,-2.823l0,-0.079c0,-1.308 -0.419,-2.288 -1.26,-2.943c-0.842,-0.653 -2.011,-0.98 -3.51,-0.98l-6.032,0l0,7.885l6.151,0Zm-12.222,-13.405l12.616,0c3.495,0 6.176,0.933 8.044,2.8c1.576,1.576 2.365,3.68 2.365,6.308l0,0.078c0,2.235 -0.547,4.054 -1.637,5.461c-1.092,1.406 -2.517,2.438 -4.278,3.094l6.742,9.856l-7.096,0l-5.915,-8.831l-4.77,0l0,8.831l-6.071,0l0,-27.597Z" style="fill:#545555;fill-rule:nonzero;"/></g></svg>