<?xml version="1.0" encoding="UTF-8" standalone="no"?><!DOCTYPE svg PUBLIC "-//W3C//DTD SVG 1.1//EN" "http://www.w3.org/Graphics/SVG/1.1/DTD/svg11.dtd"><svg width="100%" height="100%" viewBox="0 0 401 319" version="1.1" xmlns="http://www.w3.org/2000/svg" xmlns:xlink="http://www.w3.org/1999/xlink" xml:space="preserve" style="fill-rule:evenodd;clip-rule:evenodd;stroke-linejoin:round;stroke-miterlimit:1.41421;"><path d="M86.376,283.309l-2.831,0l-1.729,7.41c-0.114,0.437 -0.228,1.026 -0.361,1.748c-0.133,0.722 -0.247,1.311 -0.304,1.805c-0.076,-0.513 -0.171,-1.102 -0.304,-1.805c-0.114,-0.703 -0.228,-1.216 -0.323,-1.558l-1.976,-7.6l-2.717,0l-1.976,7.6c-0.114,0.399 -0.247,0.988 -0.38,1.729c-0.133,0.722 -0.209,1.273 -0.247,1.634c-0.133,-1.007 -0.361,-2.185 -0.665,-3.553l-1.729,-7.41l-2.831,0l3.458,13.566l3.268,0l1.824,-7.106c0.095,-0.323 0.209,-0.836 0.342,-1.577c0.152,-0.741 0.247,-1.292 0.285,-1.615c0.019,0.266 0.114,0.798 0.285,1.596c0.171,0.798 0.285,1.33 0.342,1.577l1.843,7.125l3.268,0l3.458,-13.566Z" style="fill:#33619d;fill-rule:nonzero;"/><path d="M93.596,288.895c0.342,0.38 0.532,0.912 0.532,1.615l-3.971,0c0.057,-0.703 0.247,-1.235 0.589,-1.615c0.342,-0.38 0.817,-0.57 1.406,-0.57c0.608,0 1.083,0.19 1.444,0.57Zm1.026,7.98c0.551,-0.114 1.083,-0.304 1.577,-0.551l0,-2.185c-0.608,0.285 -1.178,0.494 -1.748,0.627c-0.551,0.133 -1.14,0.19 -1.767,0.19c-0.798,0 -1.425,-0.228 -1.881,-0.684c-0.437,-0.456 -0.684,-1.083 -0.703,-1.881l6.688,0l0,-1.368c0,-1.482 -0.399,-2.622 -1.216,-3.458c-0.817,-0.836 -1.976,-1.254 -3.439,-1.254c-1.52,0 -2.736,0.475 -3.591,1.425c-0.874,0.95 -1.311,2.299 -1.311,4.028c0,1.691 0.475,3.002 1.406,3.914c0.95,0.931 2.242,1.387 3.914,1.387c0.817,0 1.501,-0.057 2.071,-0.19Z" style="fill:#33619d;fill-rule:nonzero;"/><path d="M112.596,296.875l0,-6.916c0,-1.235 -0.38,-2.147 -1.121,-2.755c-0.741,-0.608 -1.805,-0.912 -3.192,-0.912c-1.463,0 -2.774,0.304 -3.971,0.931l0.931,1.919c1.121,-0.513 2.09,-0.76 2.926,-0.76c1.083,0 1.615,0.532 1.615,1.577l0,0.456l-1.805,0.057c-1.558,0.057 -2.717,0.342 -3.477,0.874c-0.779,0.513 -1.159,1.33 -1.159,2.432c0,1.045 0.285,1.862 0.855,2.432c0.57,0.57 1.368,0.855 2.356,0.855c0.817,0 1.463,-0.114 1.976,-0.342c0.494,-0.247 0.988,-0.646 1.463,-1.254l0.076,0l0.551,1.406l1.976,0Zm-2.812,-3.952c0,0.627 -0.19,1.121 -0.589,1.501c-0.399,0.38 -0.912,0.57 -1.577,0.57c-0.912,0 -1.368,-0.399 -1.368,-1.197c0,-0.551 0.19,-0.969 0.608,-1.254c0.399,-0.266 1.007,-0.418 1.824,-0.437l1.102,-0.038l0,0.855Z" style="fill:#33619d;fill-rule:nonzero;"/><path d="M119.512,286.843c-0.551,0.361 -0.988,0.817 -1.311,1.406l-0.133,0l-0.418,-1.748l-2.147,0l0,10.374l2.831,0l0,-5.282c0,-0.836 0.247,-1.482 0.76,-1.938c0.494,-0.475 1.197,-0.703 2.109,-0.703c0.323,0 0.608,0.038 0.836,0.095l0.209,-2.66c-0.247,-0.057 -0.57,-0.076 -0.95,-0.076c-0.646,0 -1.235,0.171 -1.786,0.532Z" style="fill:#33619d;fill-rule:nonzero;"/><path d="M129.867,288.895c0.342,0.38 0.532,0.912 0.532,1.615l-3.971,0c0.057,-0.703 0.247,-1.235 0.589,-1.615c0.342,-0.38 0.817,-0.57 1.406,-0.57c0.608,0 1.083,0.19 1.444,0.57Zm1.026,7.98c0.551,-0.114 1.083,-0.304 1.577,-0.551l0,-2.185c-0.608,0.285 -1.178,0.494 -1.748,0.627c-0.551,0.133 -1.14,0.19 -1.767,0.19c-0.798,0 -1.425,-0.228 -1.881,-0.684c-0.437,-0.456 -0.684,-1.083 -0.703,-1.881l6.688,0l0,-1.368c0,-1.482 -0.399,-2.622 -1.216,-3.458c-0.817,-0.836 -1.976,-1.254 -3.439,-1.254c-1.52,0 -2.736,0.475 -3.591,1.425c-0.874,0.95 -1.311,2.299 -1.311,4.028c0,1.691 0.475,3.002 1.406,3.914c0.95,0.931 2.242,1.387 3.914,1.387c0.817,0 1.501,-0.057 2.071,-0.19Z" style="fill:#33619d;fill-rule:nonzero;"/><path d="M148.696,283.309l0,8.284c0,1.064 -0.209,1.824 -0.627,2.318c-0.437,0.494 -1.121,0.741 -2.052,0.741c-0.969,0 -1.672,-0.247 -2.09,-0.741c-0.418,-0.475 -0.627,-1.254 -0.627,-2.299l0,-8.303l-2.869,0l0,8.74c0,1.558 0.475,2.774 1.444,3.667c0.969,0.893 2.318,1.349 4.066,1.349c1.159,0 2.166,-0.209 3.002,-0.608c0.855,-0.399 1.501,-0.969 1.957,-1.729c0.437,-0.76 0.665,-1.634 0.665,-2.641l0,-8.778l-2.869,0Z" style="fill:#33619d;fill-rule:nonzero;"/><path d="M164.238,290.111c0,-1.235 -0.323,-2.166 -0.931,-2.831c-0.627,-0.646 -1.539,-0.969 -2.755,-0.969c-0.703,0 -1.33,0.133 -1.881,0.38c-0.551,0.266 -0.988,0.646 -1.311,1.14l-0.152,0l-0.38,-1.33l-2.166,0l0,10.374l2.831,0l0,-4.883c0,-1.216 0.171,-2.09 0.532,-2.622c0.342,-0.532 0.912,-0.798 1.71,-0.798c0.589,0 1.007,0.19 1.273,0.57c0.266,0.361 0.399,0.931 0.399,1.672l0,6.061l2.831,0l0,-6.764Z" style="fill:#33619d;fill-rule:nonzero;"/><path d="M173.377,295.526l0.114,0l0.551,1.349l2.166,0l0,-14.44l-2.831,0l0,3.325c0,0.608 0.076,1.292 0.209,2.071l-0.095,0c-0.684,-1.007 -1.672,-1.52 -2.983,-1.52c-1.235,0 -2.223,0.475 -2.926,1.425c-0.703,0.95 -1.064,2.28 -1.064,3.971c0,1.672 0.342,2.983 1.045,3.933c0.703,0.95 1.653,1.425 2.869,1.425c1.311,0 2.299,-0.513 2.945,-1.539Zm-3.458,-1.482c-0.361,-0.513 -0.532,-1.273 -0.532,-2.299c0,-1.026 0.171,-1.805 0.513,-2.337c0.361,-0.532 0.855,-0.798 1.482,-0.798c0.779,0 1.33,0.247 1.672,0.722c0.342,0.475 0.513,1.273 0.513,2.394l0,0.304c-0.019,1.007 -0.209,1.729 -0.551,2.147c-0.342,0.418 -0.874,0.627 -1.596,0.627c-0.646,0 -1.159,-0.247 -1.501,-0.76Z" style="fill:#33619d;fill-rule:nonzero;"/><path d="M184.91,288.895c0.342,0.38 0.532,0.912 0.532,1.615l-3.971,0c0.057,-0.703 0.247,-1.235 0.589,-1.615c0.342,-0.38 0.817,-0.57 1.406,-0.57c0.608,0 1.083,0.19 1.444,0.57Zm1.026,7.98c0.551,-0.114 1.083,-0.304 1.577,-0.551l0,-2.185c-0.608,0.285 -1.178,0.494 -1.748,0.627c-0.551,0.133 -1.14,0.19 -1.767,0.19c-0.798,0 -1.425,-0.228 -1.881,-0.684c-0.437,-0.456 -0.684,-1.083 -0.703,-1.881l6.688,0l0,-1.368c0,-1.482 -0.399,-2.622 -1.216,-3.458c-0.817,-0.836 -1.976,-1.254 -3.439,-1.254c-1.52,0 -2.736,0.475 -3.591,1.425c-0.874,0.95 -1.311,2.299 -1.311,4.028c0,1.691 0.475,3.002 1.406,3.914c0.95,0.931 2.242,1.387 3.914,1.387c0.817,0 1.501,-0.057 2.071,-0.19Z" style="fill:#33619d;fill-rule:nonzero;"/><path d="M194.41,286.843c-0.551,0.361 -0.988,0.817 -1.311,1.406l-0.133,0l-0.418,-1.748l-2.147,0l0,10.374l2.831,0l0,-5.282c0,-0.836 0.247,-1.482 0.76,-1.938c0.494,-0.475 1.197,-0.703 2.109,-0.703c0.323,0 0.608,0.038 0.836,0.095l0.209,-2.66c-0.247,-0.057 -0.57,-0.076 -0.95,-0.076c-0.646,0 -1.235,0.171 -1.786,0.532Z" style="fill:#33619d;fill-rule:nonzero;"/><path d="M212.549,296.875l3.496,-10.621l0.076,0c-0.076,1.71 -0.114,2.755 -0.114,3.154c-0.019,0.399 -0.019,0.741 -0.019,1.045l0,6.422l2.679,0l0,-13.566l-3.914,0l-3.401,10.374l-0.057,0l-3.211,-10.374l-3.914,0l0,13.566l2.565,0l0,-6.308c0,-0.722 -0.057,-2.166 -0.171,-4.332l0.076,0l3.268,10.64l2.641,0Z" style="fill:#33619d;fill-rule:nonzero;"/><path d="M230.425,296.876l0,-6.916c0,-1.235 -0.38,-2.147 -1.121,-2.755c-0.741,-0.608 -1.805,-0.912 -3.192,-0.912c-1.463,0 -2.774,0.304 -3.971,0.931l0.931,1.919c1.121,-0.513 2.09,-0.76 2.926,-0.76c1.083,0 1.615,0.532 1.615,1.577l0,0.456l-1.805,0.057c-1.558,0.057 -2.717,0.342 -3.477,0.874c-0.779,0.513 -1.159,1.33 -1.159,2.432c0,1.045 0.285,1.862 0.855,2.432c0.57,0.57 1.368,0.855 2.356,0.855c0.817,0 1.463,-0.114 1.976,-0.342c0.494,-0.247 0.988,-0.646 1.463,-1.254l0.076,0l0.551,1.406l1.976,0Zm-2.812,-3.952c0,0.627 -0.19,1.121 -0.589,1.501c-0.399,0.38 -0.912,0.57 -1.577,0.57c-0.912,0 -1.368,-0.399 -1.368,-1.197c0,-0.551 0.19,-0.969 0.608,-1.254c0.399,-0.266 1.007,-0.418 1.824,-0.437l1.102,-0.038l0,0.855Z" style="fill:#33619d;fill-rule:nonzero;"/><path d="M234.757,285.21c0.513,0 0.893,-0.114 1.159,-0.361c0.247,-0.247 0.38,-0.589 0.38,-1.026c0,-0.931 -0.513,-1.387 -1.539,-1.387c-1.026,0 -1.539,0.456 -1.539,1.387c0,0.931 0.513,1.387 1.539,1.387Zm1.406,1.292l-2.831,0l0,10.374l2.831,0l0,-10.374Z" style="fill:#33619d;fill-rule:nonzero;"/><path d="M248.706,290.112c0,-1.235 -0.323,-2.166 -0.931,-2.831c-0.627,-0.646 -1.539,-0.969 -2.755,-0.969c-0.703,0 -1.33,0.133 -1.881,0.38c-0.551,0.266 -0.988,0.646 -1.311,1.14l-0.152,0l-0.38,-1.33l-2.166,0l0,10.374l2.831,0l0,-4.883c0,-1.216 0.171,-2.09 0.532,-2.622c0.342,-0.532 0.912,-0.798 1.71,-0.798c0.589,0 1.007,0.19 1.273,0.57c0.266,0.361 0.399,0.931 0.399,1.672l0,6.061l2.831,0l0,-6.764Z" style="fill:#33619d;fill-rule:nonzero;"/><path d="M255.094,294.52c-0.228,-0.19 -0.342,-0.494 -0.342,-0.893l0,-4.997l2.907,0l0,-2.128l-2.907,0l0,-2.204l-1.805,0l-0.817,2.185l-1.558,0.95l0,1.197l1.349,0l0,4.997c0,1.159 0.266,2.014 0.779,2.584c0.513,0.57 1.349,0.855 2.47,0.855c1.026,0 1.9,-0.152 2.603,-0.475l0,-2.109c-0.703,0.209 -1.292,0.323 -1.786,0.323c-0.361,0 -0.665,-0.095 -0.893,-0.285Z" style="fill:#33619d;fill-rule:nonzero;"/><path d="M265.604,288.896c0.342,0.38 0.532,0.912 0.532,1.615l-3.971,0c0.057,-0.703 0.247,-1.235 0.589,-1.615c0.342,-0.38 0.817,-0.57 1.406,-0.57c0.608,0 1.083,0.19 1.444,0.57Zm1.026,7.98c0.551,-0.114 1.083,-0.304 1.577,-0.551l0,-2.185c-0.608,0.285 -1.178,0.494 -1.748,0.627c-0.551,0.133 -1.14,0.19 -1.767,0.19c-0.798,0 -1.425,-0.228 -1.881,-0.684c-0.437,-0.456 -0.684,-1.083 -0.703,-1.881l6.688,0l0,-1.368c0,-1.482 -0.399,-2.622 -1.216,-3.458c-0.817,-0.836 -1.976,-1.254 -3.439,-1.254c-1.52,0 -2.736,0.475 -3.591,1.425c-0.874,0.95 -1.311,2.299 -1.311,4.028c0,1.691 0.475,3.002 1.406,3.914c0.95,0.931 2.242,1.387 3.914,1.387c0.817,0 1.501,-0.057 2.071,-0.19Z" style="fill:#33619d;fill-rule:nonzero;"/><path d="M280.666,290.112c0,-1.235 -0.323,-2.166 -0.931,-2.831c-0.627,-0.646 -1.539,-0.969 -2.755,-0.969c-0.703,0 -1.33,0.133 -1.881,0.38c-0.551,0.266 -0.988,0.646 -1.311,1.14l-0.152,0l-0.38,-1.33l-2.166,0l0,10.374l2.831,0l0,-4.883c0,-1.216 0.171,-2.09 0.532,-2.622c0.342,-0.532 0.912,-0.798 1.71,-0.798c0.589,0 1.007,0.19 1.273,0.57c0.266,0.361 0.399,0.931 0.399,1.672l0,6.061l2.831,0l0,-6.764Z" style="fill:#33619d;fill-rule:nonzero;"/><path d="M292.148,296.876l0,-6.916c0,-1.235 -0.38,-2.147 -1.121,-2.755c-0.741,-0.608 -1.805,-0.912 -3.192,-0.912c-1.463,0 -2.774,0.304 -3.971,0.931l0.931,1.919c1.121,-0.513 2.09,-0.76 2.926,-0.76c1.083,0 1.615,0.532 1.615,1.577l0,0.456l-1.805,0.057c-1.558,0.057 -2.717,0.342 -3.477,0.874c-0.779,0.513 -1.159,1.33 -1.159,2.432c0,1.045 0.285,1.862 0.855,2.432c0.57,0.57 1.368,0.855 2.356,0.855c0.817,0 1.463,-0.114 1.976,-0.342c0.494,-0.247 0.988,-0.646 1.463,-1.254l0.076,0l0.551,1.406l1.976,0Zm-2.812,-3.952c0,0.627 -0.19,1.121 -0.589,1.501c-0.399,0.38 -0.912,0.57 -1.577,0.57c-0.912,0 -1.368,-0.399 -1.368,-1.197c0,-0.551 0.19,-0.969 0.608,-1.254c0.399,-0.266 1.007,-0.418 1.824,-0.437l1.102,-0.038l0,0.855Z" style="fill:#33619d;fill-rule:nonzero;"/><path d="M304.63,290.112c0,-1.235 -0.323,-2.166 -0.931,-2.831c-0.627,-0.646 -1.539,-0.969 -2.755,-0.969c-0.703,0 -1.33,0.133 -1.881,0.38c-0.551,0.266 -0.988,0.646 -1.311,1.14l-0.152,0l-0.38,-1.33l-2.166,0l0,10.374l2.831,0l0,-4.883c0,-1.216 0.171,-2.09 0.532,-2.622c0.342,-0.532 0.912,-0.798 1.71,-0.798c0.589,0 1.007,0.19 1.273,0.57c0.266,0.361 0.399,0.931 0.399,1.672l0,6.061l2.831,0l0,-6.764Z" style="fill:#33619d;fill-rule:nonzero;"/><path d="M313.526,296.895c0.456,-0.114 0.931,-0.304 1.387,-0.608l0,-2.413c-0.475,0.304 -0.931,0.532 -1.406,0.684c-0.456,0.133 -0.95,0.209 -1.501,0.209c-1.482,0 -2.204,-1.007 -2.204,-3.04c0,-2.09 0.722,-3.135 2.204,-3.135c0.38,0 0.76,0.057 1.14,0.171c0.399,0.114 0.798,0.266 1.254,0.437l0.836,-2.185c-0.95,-0.475 -2.033,-0.703 -3.23,-0.703c-1.634,0 -2.907,0.456 -3.781,1.387c-0.874,0.931 -1.311,2.28 -1.311,4.047c0,3.553 1.615,5.32 4.845,5.32c0.703,0 1.292,-0.057 1.767,-0.171Z" style="fill:#33619d;fill-rule:nonzero;"/><path d="M323.049,288.896c0.342,0.38 0.532,0.912 0.532,1.615l-3.971,0c0.057,-0.703 0.247,-1.235 0.589,-1.615c0.342,-0.38 0.817,-0.57 1.406,-0.57c0.608,0 1.083,0.19 1.444,0.57Zm1.026,7.98c0.551,-0.114 1.083,-0.304 1.577,-0.551l0,-2.185c-0.608,0.285 -1.178,0.494 -1.748,0.627c-0.551,0.133 -1.14,0.19 -1.767,0.19c-0.798,0 -1.425,-0.228 -1.881,-0.684c-0.437,-0.456 -0.684,-1.083 -0.703,-1.881l6.688,0l0,-1.368c0,-1.482 -0.399,-2.622 -1.216,-3.458c-0.817,-0.836 -1.976,-1.254 -3.439,-1.254c-1.52,0 -2.736,0.475 -3.591,1.425c-0.874,0.95 -1.311,2.299 -1.311,4.028c0,1.691 0.475,3.002 1.406,3.914c0.95,0.931 2.242,1.387 3.914,1.387c0.817,0 1.501,-0.057 2.071,-0.19Z" style="fill:#33619d;fill-rule:nonzero;"/><path d="M328.574,296.705c0.285,0.285 0.684,0.418 1.197,0.418c0.513,0 0.912,-0.133 1.197,-0.418c0.285,-0.285 0.418,-0.665 0.418,-1.159c0,-0.513 -0.133,-0.893 -0.418,-1.178c-0.285,-0.266 -0.684,-0.399 -1.197,-0.399c-0.532,0 -0.931,0.133 -1.216,0.399c-0.285,0.266 -0.418,0.665 -0.418,1.178c0,0.494 0.152,0.893 0.437,1.159Z" style="fill:#33619d;fill-rule:nonzero;"/><path d="M155.569,308.594l-1.534,0l-1.326,5.395c-0.234,0.936 -0.39,1.703 -0.455,2.314c-0.156,-1.001 -0.325,-1.755 -0.468,-2.262l-1.547,-5.447l-1.508,0l-1.508,5.421c-0.078,0.273 -0.156,0.637 -0.26,1.079c-0.091,0.442 -0.156,0.845 -0.208,1.209c-0.091,-0.663 -0.234,-1.43 -0.442,-2.301l-1.326,-5.408l-1.547,0l1.222,4.641l1.196,4.641l1.651,0l1.534,-5.512c0.065,-0.208 0.143,-0.533 0.234,-0.962c0.104,-0.429 0.169,-0.78 0.208,-1.053c0.026,0.169 0.091,0.494 0.182,0.949c0.104,0.455 0.195,0.806 0.26,1.04l1.573,5.538l1.651,0l2.418,-9.282Z" style="fill:#33619d;fill-rule:nonzero;"/><path d="M158.221,310.856l-1.495,0l0,7.02l1.495,0l0,-7.02Zm-1.365,-1.261c0.143,0.143 0.351,0.221 0.624,0.221c0.26,0 0.468,-0.078 0.611,-0.221c0.156,-0.143 0.221,-0.338 0.221,-0.598c0,-0.273 -0.065,-0.468 -0.221,-0.611c-0.143,-0.143 -0.351,-0.221 -0.611,-0.221c-0.273,0 -0.481,0.078 -0.624,0.221c-0.143,0.143 -0.221,0.338 -0.221,0.611c0,0.26 0.078,0.455 0.221,0.598Z" style="fill:#33619d;fill-rule:nonzero;"/><rect x="160.353" y="307.996" width="1.495" height="9.88" style="fill:#33619d;fill-rule:nonzero;"/><rect x="163.98" y="307.996" width="1.495" height="9.88" style="fill:#33619d;fill-rule:nonzero;"/><path d="M172.482,311.779l-0.065,0c0.013,-0.104 0.026,-0.312 0.039,-0.663c0.013,-0.338 0.026,-0.598 0.026,-0.767l0,-2.353l-1.495,0l0,9.88l1.118,0l0.273,-0.832l0.104,0c0.494,0.637 1.183,0.962 2.067,0.962c0.884,0 1.573,-0.325 2.067,-0.962c0.494,-0.637 0.741,-1.534 0.741,-2.691c0,-1.144 -0.247,-2.041 -0.741,-2.678c-0.481,-0.637 -1.17,-0.949 -2.041,-0.949c-0.923,0 -1.625,0.351 -2.093,1.053Zm3.341,2.561c0,0.793 -0.13,1.391 -0.403,1.82c-0.273,0.416 -0.676,0.624 -1.209,0.624c-0.611,0 -1.053,-0.195 -1.326,-0.572c-0.273,-0.39 -0.403,-1.001 -0.403,-1.859l0,-0.104c0,-0.832 0.143,-1.417 0.403,-1.768c0.273,-0.351 0.702,-0.533 1.3,-0.533c1.092,0 1.638,0.793 1.638,2.392Z" style="fill:#33619d;fill-rule:nonzero;"/><path d="M183.428,317.902c0.377,-0.078 0.741,-0.195 1.105,-0.377l0,-1.209c-0.416,0.182 -0.793,0.312 -1.157,0.39c-0.351,0.078 -0.741,0.117 -1.157,0.117c-0.624,0 -1.118,-0.182 -1.469,-0.546c-0.338,-0.364 -0.52,-0.897 -0.546,-1.573l4.68,0l0,-0.806c0,-0.988 -0.273,-1.768 -0.806,-2.327c-0.546,-0.559 -1.274,-0.845 -2.197,-0.845c-1.001,0 -1.781,0.325 -2.353,0.988c-0.572,0.65 -0.858,1.56 -0.858,2.704c0,1.118 0.299,1.989 0.923,2.626c0.611,0.637 1.469,0.962 2.561,0.962c0.481,0 0.897,-0.039 1.274,-0.104Zm-0.429,-5.603c0.273,0.299 0.403,0.741 0.416,1.326l-3.185,0c0.052,-0.572 0.221,-1.014 0.507,-1.313c0.286,-0.299 0.663,-0.455 1.144,-0.455c0.468,0 0.845,0.143 1.118,0.442Z" style="fill:#33619d;fill-rule:nonzero;"/><path d="M190.11,317.876l3.354,0c1.04,0 1.846,-0.234 2.431,-0.702c0.572,-0.481 0.871,-1.131 0.871,-1.963c0,-0.624 -0.156,-1.105 -0.468,-1.469c-0.299,-0.364 -0.78,-0.611 -1.43,-0.728l0,-0.065c0.52,-0.091 0.923,-0.312 1.209,-0.676c0.273,-0.364 0.416,-0.806 0.416,-1.352c0,-0.806 -0.286,-1.391 -0.858,-1.768c-0.572,-0.377 -1.495,-0.559 -2.769,-0.559l-2.756,0l0,9.282Zm1.521,-8.008l1.313,0c0.689,0 1.183,0.091 1.495,0.286c0.325,0.195 0.481,0.52 0.481,0.949c0,0.481 -0.143,0.819 -0.442,1.027c-0.286,0.195 -0.754,0.299 -1.391,0.299l-1.456,0l0,-2.561Zm1.534,3.796c0.676,0 1.17,0.117 1.508,0.351c0.325,0.234 0.494,0.585 0.494,1.066c0,0.533 -0.169,0.91 -0.494,1.157c-0.312,0.247 -0.793,0.364 -1.43,0.364l-1.612,0l0,-2.938l1.534,0Z" style="fill:#33619d;fill-rule:nonzero;"/><path d="M203.994,317.876l0,-4.732c0,-0.832 -0.234,-1.443 -0.689,-1.833c-0.455,-0.39 -1.118,-0.585 -2.015,-0.585c-0.403,0 -0.832,0.052 -1.287,0.156c-0.455,0.104 -0.871,0.26 -1.248,0.455l0.481,1.066c0.312,-0.143 0.624,-0.273 0.949,-0.377c0.338,-0.104 0.676,-0.156 1.04,-0.156c0.442,0 0.767,0.117 0.975,0.338c0.208,0.221 0.312,0.559 0.312,1.001l0,0.377l-1.209,0.039c-1.105,0.039 -1.924,0.234 -2.457,0.598c-0.533,0.377 -0.806,0.923 -0.806,1.638c0,0.689 0.195,1.209 0.585,1.586c0.377,0.377 0.923,0.559 1.612,0.559c0.533,0 0.975,-0.078 1.313,-0.234c0.351,-0.156 0.689,-0.442 1.027,-0.871l0.052,0l0.299,0.975l1.066,0Zm-4.121,-1.274c-0.195,-0.169 -0.286,-0.416 -0.286,-0.728c0,-0.429 0.156,-0.754 0.481,-0.962c0.325,-0.208 0.832,-0.325 1.534,-0.351l0.897,-0.039l0,0.611c0,0.546 -0.156,0.975 -0.494,1.274c-0.325,0.299 -0.754,0.455 -1.3,0.455c-0.377,0 -0.65,-0.091 -0.832,-0.26Z" style="fill:#33619d;fill-rule:nonzero;"/><path d="M209.99,317.902c0.312,-0.065 0.598,-0.182 0.858,-0.338l0,-1.3c-0.585,0.325 -1.222,0.494 -1.885,0.494c-0.585,0 -1.027,-0.195 -1.326,-0.598c-0.299,-0.39 -0.455,-0.988 -0.455,-1.768c0,-1.612 0.611,-2.418 1.82,-2.418c0.416,0 0.936,0.117 1.56,0.364l0.455,-1.196c-0.598,-0.273 -1.261,-0.416 -2.002,-0.416c-1.092,0 -1.924,0.312 -2.509,0.949c-0.572,0.637 -0.858,1.547 -0.858,2.73c0,1.157 0.273,2.054 0.832,2.665c0.546,0.624 1.352,0.936 2.418,0.936c0.429,0 0.793,-0.039 1.092,-0.104Z" style="fill:#33619d;fill-rule:nonzero;"/><path d="M213.903,314.172l0.078,-1.352l0,-4.823l-1.482,0l0,9.88l1.482,0l0,-2.405l0.819,-0.676l2.249,3.081l1.755,0l-3.003,-4.004l2.821,-3.016l-1.716,0l-2.119,2.262l-0.845,1.053l-0.039,0Z" style="fill:#33619d;fill-rule:nonzero;"/><path d="M228.601,314.263c-0.143,-0.299 -0.377,-0.585 -0.702,-0.832c-0.312,-0.234 -0.819,-0.507 -1.495,-0.793c-0.611,-0.247 -1.027,-0.442 -1.261,-0.598c-0.234,-0.156 -0.403,-0.312 -0.494,-0.481c-0.104,-0.182 -0.156,-0.377 -0.156,-0.624c0,-0.351 0.13,-0.637 0.377,-0.845c0.26,-0.221 0.624,-0.325 1.118,-0.325c0.65,0 1.391,0.169 2.21,0.52l0.481,-1.235c-0.871,-0.39 -1.755,-0.585 -2.652,-0.585c-0.923,0 -1.664,0.221 -2.21,0.663c-0.559,0.442 -0.832,1.053 -0.832,1.833c0,0.611 0.182,1.144 0.52,1.586c0.351,0.442 0.949,0.832 1.794,1.17c0.819,0.338 1.365,0.624 1.625,0.858c0.26,0.247 0.39,0.533 0.39,0.884c0,0.39 -0.143,0.689 -0.429,0.923c-0.286,0.221 -0.728,0.338 -1.326,0.338c-0.416,0 -0.858,-0.052 -1.326,-0.169c-0.481,-0.117 -0.936,-0.273 -1.352,-0.468l0,1.43c0.663,0.325 1.521,0.494 2.574,0.494c1.053,0 1.872,-0.234 2.47,-0.702c0.598,-0.468 0.897,-1.118 0.897,-1.95c0,-0.416 -0.078,-0.78 -0.221,-1.092Z" style="fill:#33619d;fill-rule:nonzero;"/><path d="M235.8,311.702c-0.598,-0.65 -1.404,-0.975 -2.418,-0.975c-1.066,0 -1.885,0.325 -2.47,0.962c-0.585,0.637 -0.871,1.521 -0.871,2.665c0,0.728 0.13,1.378 0.403,1.937c0.273,0.546 0.663,0.975 1.157,1.274c0.507,0.299 1.092,0.442 1.742,0.442c1.053,0 1.872,-0.325 2.457,-0.962c0.598,-0.65 0.884,-1.547 0.884,-2.691c0,-1.105 -0.299,-1.989 -0.884,-2.652Zm-3.809,0.871c0.286,-0.416 0.741,-0.624 1.365,-0.624c1.196,0 1.794,0.806 1.794,2.405c0,1.625 -0.598,2.431 -1.781,2.431c-1.196,0 -1.794,-0.806 -1.794,-2.431c0,-0.78 0.143,-1.365 0.416,-1.781Z" style="fill:#33619d;fill-rule:nonzero;"/><path d="M243.741,311.702c-0.598,-0.65 -1.404,-0.975 -2.418,-0.975c-1.066,0 -1.885,0.325 -2.47,0.962c-0.585,0.637 -0.871,1.521 -0.871,2.665c0,0.728 0.13,1.378 0.403,1.937c0.273,0.546 0.663,0.975 1.157,1.274c0.507,0.299 1.092,0.442 1.742,0.442c1.053,0 1.872,-0.325 2.457,-0.962c0.598,-0.65 0.884,-1.547 0.884,-2.691c0,-1.105 -0.299,-1.989 -0.884,-2.652Zm-3.809,0.871c0.286,-0.416 0.741,-0.624 1.365,-0.624c1.196,0 1.794,0.806 1.794,2.405c0,1.625 -0.598,2.431 -1.781,2.431c-1.196,0 -1.794,-0.806 -1.794,-2.431c0,-0.78 0.143,-1.365 0.416,-1.781Z" style="fill:#33619d;fill-rule:nonzero;"/><path d="M252.514,313.301c0,-1.716 -0.832,-2.574 -2.522,-2.574c-0.481,0 -0.91,0.091 -1.3,0.273c-0.39,0.182 -0.689,0.442 -0.897,0.78l-0.078,0l-0.208,-0.923l-1.17,0l0,7.02l1.495,0l0,-3.497c0,-0.871 0.143,-1.495 0.442,-1.872c0.286,-0.377 0.754,-0.559 1.378,-0.559c0.481,0 0.819,0.13 1.04,0.403c0.221,0.26 0.325,0.663 0.325,1.209l0,4.316l1.495,0l0,-4.576Z" style="fill:#33619d;fill-rule:nonzero;"/><path d="M256.203,308.595l-1.755,0l0.325,6.461l1.105,0l0.325,-6.461Zm-1.586,9.204c0.169,0.169 0.403,0.26 0.702,0.26c0.299,0 0.533,-0.091 0.689,-0.26c0.169,-0.182 0.247,-0.416 0.247,-0.715c0,-0.299 -0.078,-0.533 -0.247,-0.702c-0.156,-0.169 -0.39,-0.26 -0.689,-0.26c-0.299,0 -0.533,0.078 -0.702,0.247c-0.169,0.156 -0.247,0.403 -0.247,0.715c0,0.312 0.078,0.546 0.247,0.715Z" style="fill:#33619d;fill-rule:nonzero;"/><path d="M267.896,242.902c-0.539,-1.764 -1.775,-3.414 -3.531,-3.98c-1.755,-0.565 -3.982,0.291 -4.529,2.052c-1.615,-1.348 -4.09,-0.277 -5.387,1.379c-2.099,2.678 -0.477,7.064 -0.127,7.349c0.379,0.307 1.404,0.253 1.404,0.253l15.705,-0.087c0,0 2.881,-0.21 4.211,-0.74c2.675,-1.067 4.495,-5.671 2.773,-7.981c-1.173,-1.574 -3.49,-1.908 -5.36,-1.31c-1.871,0.597 -3.686,1.767 -5.159,3.065Z" style="fill:#30b568;fill-rule:nonzero;"/><path d="M258.111,240.881c-0.095,0 -0.194,0.005 -0.294,0.016c-1.039,0.11 -2.202,0.808 -2.96,1.776c-1.842,2.35 -0.466,6.273 -0.165,6.668c0.07,0.051 0.588,0.12 1.006,0.096l15.73,-0.088c-0.007,-0.001 2.782,-0.209 4.021,-0.704c1.248,-0.496 2.411,-1.982 2.895,-3.695c0.395,-1.396 0.269,-2.669 -0.344,-3.493c-1.098,-1.474 -3.253,-1.617 -4.788,-1.126c-1.632,0.522 -3.399,1.573 -4.973,2.96c-0.132,0.117 -0.314,0.158 -0.484,0.11c-0.17,-0.049 -0.303,-0.179 -0.355,-0.347c-0.554,-1.813 -1.748,-3.172 -3.193,-3.638c-0.816,-0.263 -1.779,-0.173 -2.572,0.24c-0.651,0.338 -1.114,0.861 -1.303,1.472c-0.052,0.165 -0.182,0.294 -0.349,0.344c-0.165,0.048 -0.345,0.012 -0.479,-0.1c-0.391,-0.326 -0.858,-0.491 -1.393,-0.491Zm-2.609,9.598c-0.398,0 -1.108,-0.051 -1.507,-0.375c-0.616,-0.501 -2.181,-5.23 0.045,-8.071c0.938,-1.196 2.343,-2.027 3.669,-2.167c0.692,-0.079 1.337,0.043 1.899,0.336c0.337,-0.606 0.871,-1.114 1.549,-1.467c1.033,-0.537 2.292,-0.653 3.368,-0.306c1.561,0.503 2.871,1.821 3.606,3.596c1.529,-1.24 3.2,-2.182 4.765,-2.682c1.876,-0.6 4.532,-0.386 5.935,1.495c0.807,1.083 0.995,2.685 0.512,4.393c-0.577,2.04 -1.954,3.758 -3.509,4.378c-1.388,0.554 -4.244,0.767 -4.366,0.776l-15.739,0.088c-0.052,0.003 -0.13,0.006 -0.227,0.006Z" style="fill:#00af5c;fill-rule:nonzero;"/><path d="M251.38,242.307c-0.449,0.875 -0.642,1.824 -0.535,2.804c0.053,0.492 0.832,0.497 0.777,0c-0.092,-0.846 0.04,-1.653 0.43,-2.412c0.228,-0.444 -0.443,-0.838 -0.672,-0.392Z" style="fill:#00af5c;fill-rule:nonzero;"/><path d="M249.111,242.93c-0.245,0.88 -0.263,1.759 -0.067,2.65c0.107,0.489 0.857,0.282 0.75,-0.207c-0.166,-0.755 -0.14,-1.492 0.067,-2.236c0.134,-0.483 -0.616,-0.689 -0.75,-0.207Z" style="fill:#00af5c;fill-rule:nonzero;"/><path d="M253.474,241.352c0.5,0 0.501,-0.778 0,-0.778c-0.501,0 -0.502,0.778 0,0.778Z" style="fill:#00af5c;fill-rule:nonzero;"/><path d="M255.677,245.112c0,0.23 0,0.461 0,0.691c0,0.5 0.778,0.501 0.778,0c0,-0.23 0,-0.461 0,-0.691c0,-0.501 -0.778,-0.502 -0.778,0Z" style="fill:#00af5c;fill-rule:nonzero;"/><path d="M268.814,246.321c0,0.116 0,0.231 0,0.346c0,0.501 0.778,0.502 0.778,0c0,-0.115 0,-0.23 0,-0.346c0,-0.5 -0.778,-0.501 -0.778,0Z" style="fill:#00af5c;fill-rule:nonzero;"/><path d="M267.372,245.387c0.058,0.057 0.115,0.115 0.173,0.172c0.354,0.355 0.904,-0.195 0.55,-0.55c-0.058,-0.057 -0.115,-0.115 -0.173,-0.172c-0.354,-0.355 -0.904,0.195 -0.55,0.55Z" style="fill:#00af5c;fill-rule:nonzero;"/><path d="M46.354,228.242l-26.329,0c-0.573,0 -1.037,-0.464 -1.037,-1.037c0,-0.574 0.464,-1.037 1.037,-1.037l26.329,0c0.573,0 1.037,0.463 1.037,1.037c0,0.573 -0.464,1.037 -1.037,1.037Z" style="fill:#33619d;fill-rule:nonzero;"/><path d="M278.197,136.929l-0.752,0c0,-0.622 -0.506,-1.128 -1.128,-1.128c-0.621,0 -1.127,0.506 -1.127,1.128l-0.752,0c0,-1.037 0.843,-1.88 1.879,-1.88c1.037,0 1.88,0.843 1.88,1.88Z" style="fill:#fff;fill-rule:nonzero;"/><path d="M280.887,93.143l-0.752,0c0,-0.622 -0.506,-1.128 -1.128,-1.128c-0.622,0 -1.128,0.506 -1.128,1.128l-0.752,0c0,-1.037 0.843,-1.88 1.88,-1.88c1.036,0 1.88,0.843 1.88,1.88Z" style="fill:#fff;fill-rule:nonzero;"/><path d="M154.583,243.222l29.901,0c-1.152,-4.353 -1.935,-10.645 -2.09,-14.257l-25.926,0.08c0.246,4.828 -0.05,9.22 -1.885,14.177Zm32.697,2.074l-35.785,0l0.607,-1.44c2.347,-5.567 2.589,-10.333 2.232,-15.777l-0.072,-1.102l30.171,-0.092l0.007,1.032c0.026,3.519 0.978,11.512 2.411,16.028l0.429,1.351Z" style="fill:#35619c;fill-rule:nonzero;"/><path d="M90.817,124.91c-2.351,0 -4.308,1.839 -4.485,4.218c-1.315,17.75 -0.298,49.935 0.444,73.435c0.248,7.813 0.461,14.561 0.549,19.522c0.026,1.443 2.437,4.133 4.299,4.797c3.335,0.681 150.59,0.178 154.418,-0.542c4.692,-0.926 4.903,-5.552 5.107,-10.027c0.047,-1.036 0.093,-2.036 0.195,-2.943c2.49,-21.975 1.75,-45.283 1.035,-67.822c-0.171,-5.401 -0.34,-10.731 -0.461,-15.946c-0.056,-2.458 -1.99,-4.415 -4.402,-4.459l-156.624,-0.233c-0.024,0 -0.05,0 -0.075,0Zm50.389,104.035c-27.168,0 -49.176,-0.148 -50.142,-0.493c-2.325,-0.829 -5.365,-4.051 -5.406,-6.337c-0.088,-4.951 -0.301,-11.692 -0.547,-19.5c-0.744,-23.537 -1.763,-55.773 -0.441,-73.611c0.24,-3.25 2.925,-5.761 6.134,-5.761c0.035,0 0.069,0 0.104,0l156.631,0.233c3.313,0.057 5.969,2.731 6.046,6.086c0.12,5.211 0.29,10.536 0.46,15.934c0.718,22.598 1.459,45.965 -1.044,68.063c-0.099,0.872 -0.142,1.834 -0.187,2.83c-0.211,4.636 -0.473,10.407 -6.449,11.586c-2.922,0.576 -60.889,0.97 -105.159,0.97Z" style="fill:#35619c;fill-rule:nonzero;"/><path d="M243.157,128.868l-147.576,-0.194c-2.654,-0.04 -4.882,1.78 -5.081,4.158c-1.654,19.752 0.6,60.964 0.934,77.55c0.032,1.617 2.671,4.041 4.572,4.641c2.237,0.707 142.48,0.173 145.908,-0.425c6.155,-1.075 5.107,-7.379 5.624,-11.413c2.92,-22.813 1.126,-47.61 0.545,-69.923c-0.063,-2.416 -2.236,-4.354 -4.926,-4.394Z" style="fill:#9fc6ea;"/><path d="M138.678,245.016c-1.613,0 -2.044,1.349 -2.044,2.147c0,0.797 0.431,2.143 2.044,2.143l61.404,0c1.614,0 2.045,-1.35 2.045,-2.148c0,-0.796 -0.431,-2.142 -2.045,-2.142l-61.404,0Zm61.404,5.958l-61.404,0c-2.437,0 -3.711,-1.917 -3.711,-3.811c0,-1.895 1.274,-3.815 3.711,-3.815l61.404,0c2.437,0 3.712,1.917 3.712,3.81c0,1.896 -1.275,3.816 -3.712,3.816Z" style="fill:#35619c;fill-rule:nonzero;"/><path d="M95.915,220.992c-0.362,0 -0.362,0 0,0Z" style="fill:#35619c;"/><path d="M95.915,223.135c2.758,0 2.763,-4.285 0,-4.285c-2.757,0 -2.762,4.285 0,4.285Z" style="fill:#35619c;fill-rule:nonzero;"/><path d="M104.555,220.992c-0.363,0 -0.363,0 0,0Z" style="fill:#35619c;"/><path d="M104.555,223.135c2.758,0 2.763,-4.285 0,-4.285c-2.757,0 -2.762,4.285 0,4.285Z" style="fill:#35619c;fill-rule:nonzero;"/><path d="M113.195,220.992c-0.363,0 -0.363,0 0,0Z" style="fill:#35619c;"/><path d="M113.195,223.135c2.758,0 2.762,-4.285 0,-4.285c-2.757,0 -2.762,4.285 0,4.285Z" style="fill:#35619c;fill-rule:nonzero;"/><path d="M169.38,126.588c-0.17,0 -0.17,0 0,0Z" style="fill:#35619c;"/><path d="M169.38,127.593c1.294,0 1.296,-2.01 0,-2.01c-1.293,0 -1.295,2.01 0,2.01Z" style="fill:#35619c;fill-rule:nonzero;"/><path d="M342.554,246.901l-21.159,0l8.138,-26.728l4.883,0l8.138,26.728Z" style="fill:#9fc6ea;fill-rule:nonzero;"/><rect x="319.647" y="246.901" width="24.655" height="3.053" style="fill:#9fc6ea;fill-rule:nonzero;"/><path d="M323.43,240.219l-2.035,6.682l21.159,0l-2.035,-6.682l-17.089,0Z" style="fill:#35619c;fill-rule:nonzero;"/><path d="M325.464,233.537l13.021,0l-2.035,-6.682l-8.951,0l-2.035,6.682Z" style="fill:#35619c;fill-rule:nonzero;"/><path d="M351.279,218.604l5.164,0l-2.909,11.483l-5.164,0l2.909,-11.483Zm12.83,11.483l-5.165,0l2.909,-11.483l5.165,0l-2.909,11.483Zm10.574,0l-5.164,0l2.909,-11.483l5.164,0l-2.909,11.483Zm13.469,-11.483l0,0.061l-2.894,11.422l-5.164,0l2.909,-11.483l5.149,0Zm-36.946,31.178l4.695,0l0,-18.179l24.1,0l0,18.179l4.695,0l0,-18.179l4.972,0l0,-14.515l-3.966,0l0,-1.341l-6.841,0l0,1.341l-21.351,0l0,-1.341l-6.841,0l0,1.341l-4.354,0l0,14.515l4.891,0l0,18.179Z" style="fill:#9fc6ea;fill-rule:nonzero;"/><path d="M112.019,68.221c-3.215,0 -5.82,-2.608 -5.82,-5.819c0,-3.214 2.605,-5.818 5.82,-5.818c3.213,0 5.819,2.604 5.819,5.818c0,3.211 -2.606,5.819 -5.819,5.819Zm8.263,3.852l1.407,-1.407c0.286,-0.284 0.286,-0.747 0,-1.033l-1.226,-1.223c-0.282,-0.286 -0.357,-0.804 -0.163,-1.156l0.998,-2.424c0.112,-0.388 0.536,-0.703 0.937,-0.703l1.734,0c0.403,0 0.73,-0.328 0.73,-0.727l0,-1.994c0,-0.404 -0.327,-0.728 -0.73,-0.728l-1.734,0c-0.401,0 -0.825,-0.315 -0.937,-0.701l-0.998,-2.423c-0.194,-0.353 -0.119,-0.873 0.163,-1.159l1.226,-1.223c0.286,-0.286 0.286,-0.749 0,-1.029l-1.407,-1.413c-0.285,-0.284 -0.748,-0.284 -1.031,0l-1.227,1.225c-0.285,0.285 -0.803,0.359 -1.154,0.169l-2.427,-1c-0.385,-0.115 -0.7,-0.534 -0.7,-0.938l0,-1.734c0,-0.4 -0.327,-0.731 -0.729,-0.731l-1.99,0c-0.404,0 -0.731,0.331 -0.731,0.731l0,1.734c0,0.404 -0.315,0.823 -0.7,0.938l-2.427,1c-0.351,0.19 -0.872,0.116 -1.154,-0.169l-1.228,-1.223c-0.282,-0.286 -0.745,-0.286 -1.027,0l-1.412,1.411c-0.285,0.28 -0.285,0.743 0,1.029l1.225,1.223c0.284,0.286 0.36,0.806 0.166,1.159l-0.998,2.423c-0.113,0.386 -0.537,0.701 -0.937,0.701l-1.736,0c-0.401,0 -0.729,0.324 -0.729,0.728l0,1.994c0,0.399 0.328,0.727 0.729,0.727l1.736,0c0.4,0 0.824,0.315 0.937,0.703l0.998,2.424c0.194,0.354 0.118,0.87 -0.166,1.156l-1.225,1.223c-0.285,0.286 -0.285,0.749 0,1.033l1.412,1.407c0.282,0.287 0.745,0.287 1.027,0l1.228,-1.224c0.282,-0.284 0.803,-0.358 1.156,-0.164l2.425,0.998c0.385,0.111 0.7,0.534 0.7,0.935l0,1.738c0,0.399 0.327,0.728 0.731,0.728l1.99,0c0.402,0 0.729,-0.329 0.729,-0.728l0,-1.738c0,-0.401 0.315,-0.824 0.7,-0.935l2.427,-0.998c0.351,-0.194 0.869,-0.12 1.154,0.164l1.227,1.224c0.283,0.287 0.746,0.287 1.031,0Z" style="fill:#9fc6ea;fill-rule:nonzero;"/><path d="M129.217,80.956c-0.939,1.757 -3.13,2.418 -4.881,1.477c-1.756,-0.941 -2.416,-3.128 -1.477,-4.88c0.941,-1.76 3.131,-2.419 4.884,-1.478c1.752,0.943 2.414,3.128 1.474,4.881Zm4.521,-3.384l-0.355,-1.181c-0.073,-0.24 -0.326,-0.375 -0.564,-0.304l-1.026,0.312c-0.239,0.073 -0.547,-0.04 -0.683,-0.251l-1.033,-1.253c-0.174,-0.173 -0.224,-0.497 -0.106,-0.717l0.506,-0.946c0.119,-0.222 0.035,-0.496 -0.181,-0.614l-1.089,-0.582c-0.219,-0.119 -0.493,-0.033 -0.611,0.186l-0.509,0.946c-0.117,0.218 -0.414,0.357 -0.656,0.307l-1.618,-0.163c-0.247,0.001 -0.512,-0.189 -0.582,-0.43l-0.312,-1.028c-0.071,-0.237 -0.323,-0.374 -0.562,-0.299l-1.182,0.353c-0.242,0.075 -0.373,0.326 -0.303,0.567l0.314,1.025c0.072,0.241 -0.042,0.544 -0.253,0.681l-1.255,1.035c-0.171,0.177 -0.497,0.222 -0.715,0.106l-0.948,-0.508c-0.217,-0.118 -0.494,-0.037 -0.61,0.185l-0.585,1.085c-0.115,0.222 -0.035,0.497 0.185,0.613l0.947,0.511c0.221,0.117 0.358,0.411 0.307,0.654l-0.161,1.616c0,0.25 -0.191,0.515 -0.431,0.583l-1.028,0.313c-0.24,0.071 -0.376,0.326 -0.302,0.563l0.357,1.18c0.071,0.241 0.325,0.374 0.565,0.302l1.028,-0.31c0.237,-0.071 0.542,0.043 0.678,0.249l1.033,1.256c0.176,0.174 0.224,0.498 0.108,0.718l-0.508,0.946c-0.116,0.218 -0.034,0.492 0.186,0.613l1.086,0.581c0.219,0.117 0.494,0.034 0.612,-0.184l0.51,-0.948c0.115,-0.222 0.413,-0.357 0.655,-0.308l1.615,0.164c0.252,0 0.513,0.191 0.585,0.432l0.31,1.025c0.072,0.24 0.327,0.377 0.564,0.302l1.181,-0.357c0.238,-0.071 0.374,-0.326 0.305,-0.561l-0.312,-1.028c-0.073,-0.237 0.038,-0.547 0.246,-0.681l1.256,-1.033c0.173,-0.176 0.499,-0.225 0.718,-0.109l0.946,0.508c0.22,0.121 0.498,0.036 0.613,-0.184l0.583,-1.088c0.119,-0.216 0.033,-0.494 -0.187,-0.612l-0.947,-0.509c-0.22,-0.119 -0.358,-0.411 -0.305,-0.651l0.164,-1.622c-0.003,-0.246 0.192,-0.511 0.428,-0.582l1.029,-0.311c0.236,-0.072 0.372,-0.324 0.299,-0.563Z" style="fill:#9fc6ea;fill-rule:nonzero;"/><path d="M192.626,100.352l-32.6,0c-0.573,0 -1.037,-0.464 -1.037,-1.037c0,-0.573 0.464,-1.037 1.037,-1.037l32.6,0c0.572,0 1.037,0.464 1.037,1.037c0,0.573 -0.465,1.037 -1.037,1.037Z" style="fill:#33619d;fill-rule:nonzero;"/><path d="M126.258,115.161l-52.657,0c-0.573,0 -1.038,-0.464 -1.038,-1.037c0,-0.573 0.465,-1.037 1.038,-1.037l52.657,0c0.573,0 1.037,0.464 1.037,1.037c0,0.573 -0.464,1.037 -1.037,1.037Z" style="fill:#33619d;fill-rule:nonzero;"/><path d="M378.735,143.2l-52.657,0c-0.573,0 -1.037,-0.464 -1.037,-1.037c0,-0.573 0.464,-1.037 1.037,-1.037l52.657,0c0.573,0 1.037,0.464 1.037,1.037c0,0.573 -0.464,1.037 -1.037,1.037Z" style="fill:#33619d;fill-rule:nonzero;"/><path d="M399.436,252.01l-398.399,0c-0.572,0 -1.037,-0.463 -1.037,-1.037c0,-0.573 0.465,-1.037 1.037,-1.037l398.399,0c0.573,0 1.037,0.464 1.037,1.037c0,0.574 -0.464,1.037 -1.037,1.037Z" style="fill:#33619d;fill-rule:nonzero;"/><path d="M253.299,101.571c-3.241,0 -5.88,-2.637 -5.88,-5.88c0,-3.242 2.64,-5.881 5.882,-5.881c3.242,0 5.88,2.638 5.88,5.881c0,3.243 -2.639,5.88 -5.882,5.88Zm-0.001,-14.244c-2.233,0 -4.333,0.87 -5.912,2.449c-2.694,2.694 -3.229,6.867 -1.303,10.148l0.138,0.232l-8.468,8.468c-0.011,0.012 -0.411,0.399 -0.417,0.963c-0.004,0.425 0.211,0.858 0.639,1.286c0.455,0.454 0.932,0.685 1.416,0.685c0.581,0 0.993,-0.337 0.996,-0.339l8.447,-8.451l0.234,0.139c1.278,0.75 2.742,1.146 4.233,1.146c2.234,0 4.333,-0.869 5.913,-2.447c3.26,-3.262 3.26,-8.568 0,-11.83c-1.58,-1.579 -3.681,-2.449 -5.916,-2.449Z" style="fill:#9fc6ea;fill-rule:nonzero;"/><rect x="250.199" y="95.364" width="6.057" height="1.55" style="fill:#9fc6ea;fill-rule:nonzero;"/><path d="M97.986,250.089c-0.573,0 -1.038,-0.464 -1.038,-1.037l0,-79.872c0,-0.573 0.465,-1.038 1.038,-1.038c0.572,0 1.037,0.465 1.037,1.038l0,79.872c0,0.573 -0.465,1.037 -1.037,1.037Z" style="fill:#33619d;fill-rule:nonzero;"/><path d="M116.547,250.089c-0.573,0 -1.037,-0.464 -1.037,-1.037l0,-79.872c0,-0.573 0.464,-1.038 1.037,-1.038c0.573,0 1.037,0.465 1.037,1.038l0,79.872c0,0.573 -0.464,1.037 -1.037,1.037Z" style="fill:#33619d;fill-rule:nonzero;"/><path d="M116.547,175.675l-18.561,0c-0.573,0 -1.038,-0.465 -1.038,-1.037c0,-0.573 0.465,-1.037 1.038,-1.037l18.561,0c0.573,0 1.037,0.464 1.037,1.037c0,0.572 -0.464,1.037 -1.037,1.037Z" style="fill:#33619d;fill-rule:nonzero;"/><path d="M116.547,184.8l-18.561,0c-0.573,0 -1.038,-0.464 -1.038,-1.037c0,-0.573 0.465,-1.037 1.038,-1.037l18.561,0c0.573,0 1.037,0.464 1.037,1.037c0,0.573 -0.464,1.037 -1.037,1.037Z" style="fill:#33619d;fill-rule:nonzero;"/><path d="M116.547,193.925l-18.561,0c-0.573,0 -1.038,-0.464 -1.038,-1.037c0,-0.573 0.465,-1.037 1.038,-1.037l18.561,0c0.573,0 1.037,0.464 1.037,1.037c0,0.573 -0.464,1.037 -1.037,1.037Z" style="fill:#33619d;fill-rule:nonzero;"/><path d="M116.547,203.05l-18.561,0c-0.573,0 -1.038,-0.464 -1.038,-1.037c0,-0.573 0.465,-1.037 1.038,-1.037l18.561,0c0.573,0 1.037,0.464 1.037,1.037c0,0.573 -0.464,1.037 -1.037,1.037Z" style="fill:#33619d;fill-rule:nonzero;"/><path d="M116.547,212.175l-18.561,0c-0.573,0 -1.038,-0.464 -1.038,-1.037c0,-0.573 0.465,-1.037 1.038,-1.037l18.561,0c0.573,0 1.037,0.464 1.037,1.037c0,0.573 -0.464,1.037 -1.037,1.037Z" style="fill:#33619d;fill-rule:nonzero;"/><path d="M116.547,221.3l-18.561,0c-0.573,0 -1.038,-0.464 -1.038,-1.037c0,-0.573 0.465,-1.037 1.038,-1.037l18.561,0c0.573,0 1.037,0.464 1.037,1.037c0,0.573 -0.464,1.037 -1.037,1.037Z" style="fill:#33619d;fill-rule:nonzero;"/><path d="M116.547,230.425l-18.561,0c-0.573,0 -1.038,-0.464 -1.038,-1.037c0,-0.573 0.465,-1.037 1.038,-1.037l18.561,0c0.573,0 1.037,0.464 1.037,1.037c0,0.573 -0.464,1.037 -1.037,1.037Z" style="fill:#33619d;fill-rule:nonzero;"/><path d="M116.547,239.549l-18.561,0c-0.573,0 -1.038,-0.464 -1.038,-1.037c0,-0.573 0.465,-1.037 1.038,-1.037l18.561,0c0.573,0 1.037,0.464 1.037,1.037c0,0.573 -0.464,1.037 -1.037,1.037Z" style="fill:#33619d;fill-rule:nonzero;"/><path d="M72.706,173.054c-0.572,0 -1.037,-0.465 -1.037,-1.037l0,-4.038c0,-0.573 0.465,-1.036 1.037,-1.036c0.573,0 1.037,0.463 1.037,1.036l0,4.038c0,0.572 -0.464,1.037 -1.037,1.037Z" style="fill:#33619d;fill-rule:nonzero;"/><path d="M74.725,171.035l-4.037,0c-0.573,0 -1.037,-0.465 -1.037,-1.036c0,-0.573 0.464,-1.038 1.037,-1.038l4.037,0c0.573,0 1.037,0.465 1.037,1.038c0,0.571 -0.464,1.036 -1.037,1.036Z" style="fill:#33619d;fill-rule:nonzero;"/><path d="M165.973,28.618c-0.573,0 -1.037,-0.465 -1.037,-1.038l0,-4.037c0,-0.573 0.464,-1.038 1.037,-1.038c0.573,0 1.037,0.465 1.037,1.038l0,4.037c0,0.573 -0.464,1.038 -1.037,1.038Z" style="fill:#33619d;fill-rule:nonzero;"/><path d="M167.992,26.599l-4.037,0c-0.573,0 -1.037,-0.465 -1.037,-1.038c0,-0.572 0.464,-1.037 1.037,-1.037l4.037,0c0.573,0 1.037,0.465 1.037,1.037c0,0.573 -0.464,1.038 -1.037,1.038Z" style="fill:#33619d;fill-rule:nonzero;"/><path d="M198.667,237.683c-0.094,0 -0.19,-0.013 -0.285,-0.04l-3.883,-1.108c-0.551,-0.158 -0.87,-0.731 -0.712,-1.282c0.157,-0.551 0.732,-0.864 1.281,-0.713l3.883,1.108c0.551,0.158 0.87,0.731 0.712,1.282c-0.129,0.456 -0.545,0.753 -0.996,0.753Z" style="fill:#33619d;fill-rule:nonzero;"/><path d="M196.171,239.07c-0.094,0 -0.19,-0.013 -0.285,-0.039c-0.551,-0.158 -0.87,-0.731 -0.713,-1.282l1.109,-3.883c0.158,-0.551 0.732,-0.864 1.282,-0.713c0.551,0.158 0.87,0.731 0.712,1.282l-1.109,3.883c-0.13,0.456 -0.545,0.752 -0.996,0.752Z" style="fill:#33619d;fill-rule:nonzero;"/><path d="M178.267,115.716c-0.094,0 -0.189,-0.013 -0.285,-0.04l-3.882,-1.109c-0.551,-0.157 -0.87,-0.732 -0.713,-1.282c0.158,-0.551 0.73,-0.87 1.282,-0.712l3.883,1.109c0.55,0.156 0.869,0.731 0.712,1.281c-0.13,0.456 -0.545,0.753 -0.997,0.753Z" style="fill:#33619d;fill-rule:nonzero;"/><path d="M175.772,117.103c-0.094,0 -0.19,-0.013 -0.285,-0.041c-0.551,-0.157 -0.87,-0.731 -0.713,-1.282l1.109,-3.882c0.157,-0.551 0.73,-0.87 1.282,-0.712c0.55,0.157 0.87,0.731 0.712,1.281l-1.108,3.883c-0.131,0.455 -0.546,0.753 -0.997,0.753Z" style="fill:#33619d;fill-rule:nonzero;"/><path d="M189.954,77.496c0,7.957 -6.45,14.407 -14.407,14.407c-7.957,0 -14.407,-6.45 -14.407,-14.407c0,-7.957 6.45,-14.407 14.407,-14.407c7.957,0 14.407,6.45 14.407,14.407Z" style="fill:#9fc6ea;fill-rule:nonzero;"/><path d="M186.34,77.496c0,5.96 -4.832,10.792 -10.793,10.792c-5.96,0 -10.792,-4.832 -10.792,-10.792c0,-5.961 4.832,-10.793 10.792,-10.793c5.961,0 10.793,4.832 10.793,10.793Z" style="fill:#fff;fill-rule:nonzero;"/><path d="M175.547,67.121c-5.721,0 -10.375,4.654 -10.375,10.375c0,5.721 4.654,10.375 10.375,10.375c5.721,0 10.375,-4.654 10.375,-10.375c0,-5.721 -4.654,-10.375 -10.375,-10.375Zm0,21.585c-6.181,0 -11.21,-5.029 -11.21,-11.21c0,-6.181 5.029,-11.21 11.21,-11.21c6.181,0 11.21,5.029 11.21,11.21c0,6.181 -5.029,11.21 -11.21,11.21Z" style="fill:#33619d;fill-rule:nonzero;"/><path d="M175.547,77.913c-0.23,0 -0.417,-0.187 -0.417,-0.417l0,-5.495c0,-0.231 0.187,-0.418 0.417,-0.418c0.231,0 0.418,0.187 0.418,0.418l0,5.495c0,0.23 -0.187,0.417 -0.418,0.417Z" style="fill:#33619d;fill-rule:nonzero;"/><path d="M181.985,77.913l-6.438,0c-0.23,0 -0.417,-0.187 -0.417,-0.417c0,-0.231 0.187,-0.418 0.417,-0.418l6.438,0c0.231,0 0.418,0.187 0.418,0.418c0,0.23 -0.187,0.417 -0.418,0.417Z" style="fill:#33619d;fill-rule:nonzero;"/><path d="M175.973,67.922c0,0.235 -0.19,0.426 -0.426,0.426c-0.235,0 -0.426,-0.191 -0.426,-0.426c0,-0.235 0.191,-0.426 0.426,-0.426c0.236,0 0.426,0.191 0.426,0.426Z" style="fill:#33619d;fill-rule:nonzero;"/><path d="M182.618,71.027c-0.166,0.167 -0.436,0.167 -0.602,0c-0.167,-0.166 -0.167,-0.436 0,-0.602c0.166,-0.167 0.436,-0.167 0.602,0c0.167,0.166 0.167,0.436 0,0.602Z" style="fill:#33619d;fill-rule:nonzero;"/><path d="M185.121,77.922c-0.235,0 -0.426,-0.191 -0.426,-0.426c0,-0.236 0.191,-0.426 0.426,-0.426c0.236,0 0.426,0.19 0.426,0.426c0,0.235 -0.19,0.426 -0.426,0.426Z" style="fill:#33619d;fill-rule:nonzero;"/><path d="M182.016,84.567c-0.167,-0.166 -0.167,-0.436 0,-0.603c0.166,-0.166 0.436,-0.166 0.602,0c0.167,0.167 0.167,0.437 0,0.603c-0.166,0.166 -0.436,0.166 -0.602,0Z" style="fill:#33619d;fill-rule:nonzero;"/><path d="M175.121,87.07c0,-0.236 0.191,-0.426 0.426,-0.426c0.236,0 0.426,0.19 0.426,0.426c0,0.235 -0.19,0.426 -0.426,0.426c-0.235,0 -0.426,-0.191 -0.426,-0.426Z" style="fill:#33619d;fill-rule:nonzero;"/><path d="M168.476,83.964c0.167,-0.166 0.436,-0.166 0.603,0c0.166,0.167 0.166,0.437 0,0.603c-0.167,0.166 -0.436,0.166 -0.603,0c-0.166,-0.166 -0.166,-0.436 0,-0.603Z" style="fill:#33619d;fill-rule:nonzero;"/><path d="M165.973,77.07c0.236,0 0.426,0.19 0.426,0.426c0,0.235 -0.19,0.426 -0.426,0.426c-0.235,0 -0.426,-0.191 -0.426,-0.426c0,-0.236 0.191,-0.426 0.426,-0.426Z" style="fill:#33619d;fill-rule:nonzero;"/><path d="M169.079,70.425c0.166,0.166 0.166,0.436 0,0.602c-0.167,0.167 -0.436,0.167 -0.603,0c-0.166,-0.166 -0.166,-0.436 0,-0.602c0.167,-0.167 0.436,-0.167 0.603,0Z" style="fill:#33619d;fill-rule:nonzero;"/><path d="M196.622,71.994l-6.049,0c-0.231,0 -0.418,-0.187 -0.418,-0.417c0,-0.231 0.187,-0.418 0.418,-0.418l6.049,0c0.231,0 0.418,0.187 0.418,0.418c0,0.23 -0.187,0.417 -0.418,0.417Z" style="fill:#33619d;fill-rule:nonzero;"/><path d="M196.622,83.833l-6.049,0c-0.231,0 -0.418,-0.187 -0.418,-0.418c0,-0.231 0.187,-0.417 0.418,-0.417l6.049,0c0.231,0 0.418,0.186 0.418,0.417c0,0.231 -0.187,0.418 -0.418,0.418Z" style="fill:#33619d;fill-rule:nonzero;"/><path d="M204.142,77.915l-11.299,0c-0.231,0 -0.418,-0.186 -0.418,-0.417c0,-0.231 0.187,-0.418 0.418,-0.418l11.299,0c0.231,0 0.418,0.187 0.418,0.418c0,0.231 -0.187,0.417 -0.418,0.417Z" style="fill:#33619d;fill-rule:nonzero;"/><rect x="217.176" y="233.537" width="6.682" height="6.682" style="fill:#fff;fill-rule:nonzero;"/><path d="M217.694,239.7l5.645,0l0,-5.645l-5.645,0l0,5.645Zm6.682,1.037l-7.719,0l0,-7.719l7.719,0l0,7.719Z" style="fill:#35619c;fill-rule:nonzero;"/><path d="M232.315,235.006l-6.049,0c-0.231,0 -0.418,-0.187 -0.418,-0.418c0,-0.231 0.187,-0.417 0.418,-0.417l6.049,0c0.231,0 0.417,0.186 0.417,0.417c0,0.231 -0.186,0.418 -0.417,0.418Z" style="fill:#33619d;fill-rule:nonzero;"/><path d="M234.588,239.585l-8.175,0c-0.312,0 -0.565,-0.187 -0.565,-0.418c0,-0.231 0.253,-0.417 0.565,-0.417l8.175,0c0.312,0 0.564,0.186 0.564,0.417c0,0.231 -0.252,0.418 -0.564,0.418Z" style="fill:#33619d;fill-rule:nonzero;"/><path d="M237.565,237.166l-11.299,0c-0.231,0 -0.418,-0.186 -0.418,-0.417c0,-0.231 0.187,-0.418 0.418,-0.418l11.299,0c0.231,0 0.418,0.187 0.418,0.418c0,0.231 -0.187,0.417 -0.418,0.417Z" style="fill:#33619d;fill-rule:nonzero;"/><rect x="70.452" y="135.481" width="6.682" height="6.682" style="fill:#fff;fill-rule:nonzero;"/><path d="M70.97,141.645l5.645,0l0,-5.645l-5.645,0l0,5.645Zm6.682,1.037l-7.719,0l0,-7.719l7.719,0l0,7.719Z" style="fill:#35619c;fill-rule:nonzero;"/><path d="M61.995,136.95l6.049,0c0.23,0 0.417,-0.187 0.417,-0.417c0,-0.231 -0.187,-0.418 -0.417,-0.418l-6.049,0c-0.231,0 -0.418,0.187 -0.418,0.418c0,0.23 0.187,0.417 0.418,0.417Z" style="fill:#33619d;fill-rule:nonzero;"/><path d="M59.722,141.529l8.175,0c0.312,0 0.564,-0.186 0.564,-0.417c0,-0.231 -0.252,-0.418 -0.564,-0.418l-8.175,0c-0.312,0 -0.564,0.187 -0.564,0.418c0,0.231 0.252,0.417 0.564,0.417Z" style="fill:#33619d;fill-rule:nonzero;"/><path d="M56.745,139.111l11.299,0c0.231,0 0.417,-0.187 0.417,-0.417c0,-0.231 -0.186,-0.418 -0.417,-0.418l-11.299,0c-0.231,0 -0.418,0.187 -0.418,0.418c0,0.23 0.187,0.417 0.418,0.417Z" style="fill:#33619d;fill-rule:nonzero;"/><rect x="274.243" y="160.59" width="2.074" height="89.192" style="fill:#32619d;fill-rule:nonzero;"/><path d="M275.508,171.382l-0.456,0c-3.384,0 -6.153,-2.769 -6.153,-6.153l0,-8.241c0,-3.384 2.769,-6.153 6.153,-6.153l0.456,0c3.385,0 6.154,2.769 6.154,6.153l0,8.241c0,3.384 -2.769,6.153 -6.154,6.153Z" style="fill:#9fc6ea;fill-rule:nonzero;"/><path d="M283.633,165.414c0.729,0.117 1.459,0.234 2.188,0.352c0.49,0.078 0.701,-0.671 0.207,-0.75c-0.729,-0.118 -1.459,-0.235 -2.189,-0.352c-0.489,-0.079 -0.7,0.671 -0.206,0.75Z" style="fill:#32619d;fill-rule:nonzero;"/><path d="M283.557,160.661c0.572,-0.102 1.142,-0.115 1.719,-0.06c0.498,0.047 0.495,-0.731 0,-0.778c-0.65,-0.061 -1.284,-0.026 -1.925,0.088c-0.493,0.087 -0.284,0.836 0.206,0.75Z" style="fill:#32619d;fill-rule:nonzero;"/><path d="M283.32,156.331c0.559,-0.222 1.119,-0.444 1.678,-0.666c0.46,-0.182 0.259,-0.935 -0.207,-0.75c-0.559,0.222 -1.119,0.444 -1.678,0.666c-0.46,0.182 -0.259,0.935 0.207,0.75Z" style="fill:#32619d;fill-rule:nonzero;"/><path d="M264.249,166.138c0.574,-0.079 1.13,-0.212 1.678,-0.4c0.471,-0.162 0.269,-0.913 -0.207,-0.75c-0.548,0.188 -1.104,0.321 -1.678,0.4c-0.494,0.068 -0.284,0.818 0.207,0.75Z" style="fill:#32619d;fill-rule:nonzero;"/><path d="M263.239,160.609c0.721,0.02 1.417,0.127 2.111,0.323c0.482,0.136 0.688,-0.615 0.206,-0.75c-0.758,-0.214 -1.53,-0.329 -2.317,-0.351c-0.5,-0.014 -0.5,0.764 0,0.778Z" style="fill:#32619d;fill-rule:nonzero;"/><path d="M263.918,154.21c0.56,0.179 1.12,0.358 1.68,0.536c0.478,0.153 0.683,-0.598 0.207,-0.75c-0.56,-0.178 -1.12,-0.357 -1.68,-0.536c-0.478,-0.152 -0.683,0.599 -0.207,0.75Z" style="fill:#32619d;fill-rule:nonzero;"/><path d="M270.441,250.991l1.382,-11.921l6.741,0l1.556,11.749l-9.679,0.172Z" style="fill:#33619d;fill-rule:nonzero;"/><path d="M80.105,193.916c-0.306,-1.895 -1.65,-6.786 -4.603,-5.238c-4.78,2.506 0.986,12.02 -4.774,13.697c-0.308,-3.792 -1.123,-6.405 -2.835,-6.249c-3.531,0.32 -2.593,8.535 -2.65,10.383c-0.058,1.842 -0.15,3.729 -0.233,5.635c-4.155,0.745 -3.334,-10.092 -5.861,-11.591c-3.929,-2.33 -4.764,2.863 -4.656,5.263c0.184,4.082 1.282,8.967 5.116,11.135c1.266,0.715 3.494,1.522 5.23,1.376c-0.019,3.265 0.121,6.509 0.66,9.606c0.006,0.033 0.061,0.033 0.067,0c0.001,-0.002 0.001,-0.005 0.001,-0.007l2.328,0.125c-0.001,0.014 -0.002,0.029 -0.002,0.043c-0.022,1.024 1.577,1.025 1.591,0c0.028,-1.97 1.239,-11.643 1.384,-19.839c1.859,0.277 4.196,-0.588 5.534,-1.57c3.967,-2.91 4.432,-8.263 3.703,-12.769Z" style="fill:#30b568;fill-rule:nonzero;"/><path d="M65.874,227.5l2.475,0.134l-0.013,0.43c-0.006,0.205 0.068,0.269 0.124,0.302c0.122,0.073 0.302,0.074 0.43,0.002c0.103,-0.056 0.151,-0.146 0.153,-0.28c0.009,-0.675 0.149,-2.172 0.342,-4.243c0.376,-4.044 0.945,-10.155 1.041,-15.598l0.009,-0.503l0.498,0.074c1.716,0.256 3.964,-0.576 5.208,-1.488c4.297,-3.152 4.055,-9.086 3.529,-12.343c-0.232,-1.427 -1.037,-4.312 -2.435,-5.011c-0.464,-0.233 -0.964,-0.202 -1.528,0.093c-2.036,1.068 -1.921,3.642 -1.8,6.366c0.133,2.996 0.284,6.392 -3.055,7.365l-0.52,0.151l-0.044,-0.54c-0.307,-3.779 -1.032,-5.129 -1.586,-5.594c-0.234,-0.198 -0.478,-0.278 -0.769,-0.251c-2.565,0.232 -2.369,5.919 -2.274,8.652c0.019,0.556 0.034,1.011 0.025,1.305c-0.045,1.442 -0.111,2.914 -0.178,4.399l-0.071,1.595l-0.347,0.062c-2.844,0.509 -3.644,-3.319 -4.351,-6.699c-0.455,-2.173 -0.926,-4.421 -1.813,-4.947c-0.963,-0.57 -1.759,-0.676 -2.366,-0.312c-1.317,0.79 -1.695,3.594 -1.624,5.175c0.169,3.747 1.154,8.656 4.893,10.77c1.29,0.729 3.399,1.45 4.975,1.321l0.481,-0.04l-0.003,0.482c-0.02,3.645 0.169,6.572 0.594,9.171Zm2.801,1.804c-0.235,0 -0.469,-0.06 -0.671,-0.182c-0.249,-0.15 -0.423,-0.378 -0.503,-0.651l-1.716,-0.092l-0.625,0.021l-0.095,-0.392c-0.459,-2.63 -0.672,-5.571 -0.669,-9.222c-1.91,-0.001 -4.005,-0.887 -5.004,-1.451c-4.09,-2.313 -5.161,-7.53 -5.34,-11.499c-0.071,-1.597 0.265,-4.9 2.052,-5.972c0.907,-0.543 2.008,-0.439 3.27,0.31c1.222,0.724 1.687,2.949 2.227,5.525c0.729,3.488 1.386,6.001 2.985,6.039l0.038,-0.856c0.067,-1.481 0.133,-2.948 0.177,-4.386c0.009,-0.282 -0.006,-0.716 -0.025,-1.248c-0.111,-3.233 -0.319,-9.254 3.077,-9.561c0.525,-0.05 1.002,0.104 1.418,0.454c0.947,0.797 1.553,2.64 1.846,5.624c2.145,-0.957 2.034,-3.443 1.908,-6.291c-0.128,-2.88 -0.261,-5.858 2.272,-7.186c0.823,-0.43 1.608,-0.466 2.333,-0.102c2.111,1.056 2.835,5.192 2.911,5.66c0.559,3.455 0.798,9.765 -3.878,13.196c-1.303,0.956 -3.5,1.796 -5.363,1.698c-0.121,5.352 -0.669,11.247 -1.036,15.186c-0.184,1.975 -0.329,3.533 -0.338,4.174c-0.007,0.451 -0.228,0.829 -0.607,1.04c-0.198,0.11 -0.421,0.164 -0.644,0.164Z" style="fill:#00af5c;fill-rule:nonzero;"/><path d="M75.532,249.973l-16.883,0c-0.901,0 -1.62,-0.589 -1.79,-1.465l-3.833,-19.677l1.59,-0.311l3.834,19.678c0.029,0.154 0.157,0.154 0.199,0.154l16.883,0c0.042,0 0.17,0 0.199,-0.153l3.803,-19.678l1.591,0.307l-3.803,19.679c-0.169,0.877 -0.888,1.466 -1.79,1.466Z" style="fill:#35619c;fill-rule:nonzero;"/><path d="M53.197,222.499l28.023,0c0.478,0 0.869,0.527 0.869,1.174l0,4.26c0,0.647 -0.391,1.175 -0.869,1.175l-28.023,0c-0.477,0 -0.868,-0.528 -0.868,-1.175l0,-4.26c0,-0.647 0.391,-1.174 0.868,-1.174Z" style="fill:#9fc6ea;fill-rule:nonzero;"/><path d="M53.197,222.94c-0.201,0 -0.427,0.314 -0.427,0.733l0,4.261c0,0.419 0.226,0.732 0.427,0.732l28.023,0c0.202,0 0.428,-0.313 0.428,-0.732l0,-4.261c0,-0.419 -0.226,-0.733 -0.428,-0.733l-28.023,0Zm28.023,6.609l-28.023,0c-0.722,0 -1.309,-0.725 -1.309,-1.615l0,-4.261c0,-0.891 0.587,-1.616 1.309,-1.616l28.023,0c0.723,0 1.31,0.725 1.31,1.616l0,4.261c0,0.89 -0.587,1.615 -1.31,1.615Z" style="fill:#33619d;fill-rule:nonzero;"/><path d="M53.197,222.868c-0.236,0 -0.499,0.33 -0.499,0.805l0,4.26c0,0.475 0.263,0.806 0.499,0.806l28.023,0c0.237,0 0.5,-0.331 0.5,-0.806l0,-4.26c0,-0.475 -0.263,-0.805 -0.5,-0.805l-28.023,0Zm28.023,6.609l-28.023,0c-0.682,0 -1.237,-0.692 -1.237,-1.544l0,-4.26c0,-0.851 0.555,-1.543 1.237,-1.543l28.023,0c0.683,0 1.238,0.692 1.238,1.543l0,4.26c0,0.852 -0.555,1.544 -1.238,1.544Z" style="fill:#9fc6ea;fill-rule:nonzero;"/><path d="M53.248,223.309c-0.04,0.044 -0.109,0.168 -0.109,0.365l0,4.26c0,0.225 0.091,0.356 0.125,0.378l27.956,-0.015c-0.033,-0.007 0.058,-0.138 0.058,-0.363l0,-4.26c0,-0.227 -0.091,-0.357 -0.124,-0.38l-27.906,0.015Zm27.972,6.609l-28.023,0c-0.925,0 -1.678,-0.89 -1.678,-1.984l0,-4.26c0,-1.095 0.753,-1.986 1.678,-1.986l28.023,0c0.926,0 1.679,0.891 1.679,1.986l0,4.26c0,1.094 -0.753,1.984 -1.679,1.984Z" style="fill:#33619d;fill-rule:nonzero;"/><path d="M56.253,205.77c0.461,0.059 0.921,0.117 1.382,0.176c0.495,0.064 0.491,-0.715 0,-0.778c-0.461,-0.058 -0.921,-0.117 -1.382,-0.176c-0.495,-0.063 -0.491,0.715 0,0.778Z" style="fill:#00af5c;fill-rule:nonzero;"/><path d="M58.287,199.653c0,0.23 0,0.461 0,0.691c0,0.501 0.778,0.502 0.778,0c0,-0.23 0,-0.461 0,-0.691c0,-0.501 -0.778,-0.501 -0.778,0Z" style="fill:#00af5c;fill-rule:nonzero;"/><path d="M60.977,206.785c0.338,-0.188 0.675,-0.375 1.012,-0.563c0.438,-0.244 0.046,-0.916 -0.392,-0.672c-0.338,0.188 -0.675,0.376 -1.012,0.564c-0.438,0.243 -0.046,0.915 0.392,0.671Z" style="fill:#00af5c;fill-rule:nonzero;"/><path d="M56.982,215.734c0.407,-0.284 0.813,-0.568 1.219,-0.852c0.407,-0.284 0.019,-0.959 -0.393,-0.671c-0.406,0.284 -0.812,0.568 -1.218,0.852c-0.407,0.285 -0.019,0.959 0.392,0.671Z" style="fill:#00af5c;fill-rule:nonzero;"/><path d="M54.067,209.046c0.288,0.113 0.577,0.227 0.866,0.34c0.466,0.183 0.669,-0.569 0.207,-0.75c-0.289,-0.113 -0.578,-0.227 -0.867,-0.34c-0.466,-0.183 -0.668,0.569 -0.206,0.75Z" style="fill:#00af5c;fill-rule:nonzero;"/><path d="M59.713,212.657c0.185,0.014 0.295,0.102 0.409,0.239c0.319,0.387 0.867,-0.166 0.55,-0.55c-0.25,-0.302 -0.574,-0.439 -0.959,-0.466c-0.5,-0.036 -0.497,0.742 0,0.777Z" style="fill:#00af5c;fill-rule:nonzero;"/><path d="M61.419,216.317c-0.084,0.544 -0.024,1.009 0.19,1.516c0.194,0.459 0.865,0.063 0.672,-0.393c-0.126,-0.297 -0.161,-0.599 -0.112,-0.916c0.076,-0.49 -0.673,-0.701 -0.75,-0.207Z" style="fill:#00af5c;fill-rule:nonzero;"/><path d="M65.483,216.46c0.23,0.061 0.459,0.123 0.689,0.184c0.484,0.129 0.69,-0.621 0.206,-0.75c-0.229,-0.061 -0.459,-0.123 -0.688,-0.184c-0.484,-0.129 -0.691,0.621 -0.207,0.75Z" style="fill:#00af5c;fill-rule:nonzero;"/><path d="M67.966,208.814c-0.04,0.442 0.126,0.845 0.466,1.131c0.38,0.321 0.933,-0.226 0.55,-0.55c-0.199,-0.167 -0.261,-0.326 -0.238,-0.581c0.046,-0.498 -0.733,-0.495 -0.778,0Z" style="fill:#00af5c;fill-rule:nonzero;"/><path d="M66.979,203.256c-0.226,0.309 -0.266,0.623 -0.201,0.992c0.087,0.492 0.837,0.284 0.75,-0.207c-0.024,-0.157 0.016,-0.287 0.123,-0.392c0.296,-0.404 -0.378,-0.792 -0.672,-0.393Z" style="fill:#00af5c;fill-rule:nonzero;"/><path d="M71.25,205.53c0,0.23 0,0.461 0,0.691c0,0.501 0.778,0.501 0.778,0c0,-0.23 0,-0.461 0,-0.691c0,-0.501 -0.778,-0.502 -0.778,0Z" style="fill:#00af5c;fill-rule:nonzero;"/><path d="M64.011,204.31c0.172,0.115 0.345,0.23 0.518,0.346c0.418,0.278 0.808,-0.395 0.393,-0.672c-0.173,-0.115 -0.346,-0.23 -0.519,-0.346c-0.417,-0.278 -0.807,0.395 -0.392,0.672Z" style="fill:#00af5c;fill-rule:nonzero;"/><path d="M65.312,197.857c0.15,0.175 0.225,0.356 0.242,0.586c0.039,0.496 0.817,0.5 0.778,0c-0.034,-0.446 -0.18,-0.797 -0.47,-1.136c-0.326,-0.381 -0.874,0.171 -0.55,0.55Z" style="fill:#00af5c;fill-rule:nonzero;"/><path d="M67.275,195.505c0,0.345 0,0.691 0,1.037c0,0.5 0.778,0.501 0.778,0c0,-0.346 0,-0.692 0,-1.037c0,-0.501 -0.778,-0.502 -0.778,0Z" style="fill:#00af5c;fill-rule:nonzero;"/><path d="M72.084,200.074c0.112,0.118 0.224,0.236 0.337,0.354c0.346,0.363 0.895,-0.187 0.55,-0.55c-0.113,-0.118 -0.225,-0.236 -0.337,-0.354c-0.346,-0.363 -0.895,0.187 -0.55,0.55Z" style="fill:#00af5c;fill-rule:nonzero;"/><path d="M72.855,195.439c0.345,0.02 0.69,0.039 1.034,0.059c0.5,0.029 0.499,-0.749 0,-0.778c-0.344,-0.019 -0.689,-0.039 -1.034,-0.059c-0.5,-0.028 -0.498,0.749 0,0.778Z" style="fill:#00af5c;fill-rule:nonzero;"/><path d="M73.957,189.211c0.23,0.231 0.461,0.461 0.691,0.692c0.355,0.354 0.905,-0.196 0.55,-0.55c-0.23,-0.231 -0.461,-0.461 -0.691,-0.692c-0.354,-0.354 -0.905,0.196 -0.55,0.55Z" style="fill:#00af5c;fill-rule:nonzero;"/><path d="M76.954,187.208c0,0.403 0,0.807 0,1.21c0,0.5 0.778,0.501 0.778,0c0,-0.403 0,-0.807 0,-1.21c0,-0.5 -0.778,-0.501 -0.778,0Z" style="fill:#00af5c;fill-rule:nonzero;"/><path d="M78.364,194.487c0.114,-0.174 0.227,-0.347 0.343,-0.521c0.276,-0.419 -0.397,-0.809 -0.672,-0.392c-0.114,0.173 -0.228,0.347 -0.343,0.52c-0.276,0.419 0.397,0.809 0.672,0.393Z" style="fill:#00af5c;fill-rule:nonzero;"/><path d="M75.727,202.125c0.289,-0.112 0.578,-0.225 0.868,-0.337c0.461,-0.179 0.26,-0.932 -0.207,-0.75c-0.289,0.112 -0.578,0.225 -0.868,0.337c-0.461,0.18 -0.26,0.932 0.207,0.75Z" style="fill:#00af5c;fill-rule:nonzero;"/><path d="M79.17,201.04c0.287,-0.059 0.574,-0.119 0.863,-0.179c0.489,-0.101 0.282,-0.851 -0.207,-0.75c-0.289,0.06 -0.575,0.119 -0.863,0.179c-0.491,0.102 -0.282,0.852 0.207,0.75Z" style="fill:#00af5c;fill-rule:nonzero;"/><path d="M76.954,204.666c0,0.057 0,0.115 0,0.172c0,0.501 0.778,0.502 0.778,0c0,-0.057 0,-0.115 0,-0.172c0,-0.501 -0.778,-0.502 -0.778,0Z" style="fill:#00af5c;fill-rule:nonzero;"/><path d="M70.275,216.575c0.173,-0.115 0.346,-0.231 0.519,-0.346c0.414,-0.276 0.025,-0.95 -0.393,-0.671c-0.173,0.115 -0.346,0.23 -0.519,0.345c-0.414,0.276 -0.025,0.95 0.393,0.672Z" style="fill:#00af5c;fill-rule:nonzero;"/><path d="M69.821,219.441c0.31,-0.296 0.642,-0.469 1.059,-0.566c0.487,-0.114 0.281,-0.864 -0.207,-0.75c-0.541,0.126 -1.001,0.383 -1.401,0.766c-0.363,0.347 0.188,0.897 0.549,0.55Z" style="fill:#00af5c;fill-rule:nonzero;"/><path d="M66.618,219.909c0.058,0.115 0.117,0.23 0.175,0.344c0.227,0.447 0.899,0.053 0.672,-0.392c-0.059,-0.115 -0.117,-0.23 -0.176,-0.344c-0.227,-0.447 -0.898,-0.053 -0.671,0.392Z" style="fill:#00af5c;fill-rule:nonzero;"/><path d="M63.656,220.746c0.436,0.226 0.862,0.283 1.343,0.186c0.49,-0.099 0.283,-0.849 -0.207,-0.75c-0.273,0.055 -0.499,0.019 -0.744,-0.108c-0.443,-0.231 -0.837,0.44 -0.392,0.672Z" style="fill:#00af5c;fill-rule:nonzero;"/><path d="M70.086,213.368c0.517,-0.064 1.035,-0.129 1.553,-0.194c0.49,-0.062 0.496,-0.84 0,-0.778c-0.518,0.065 -1.036,0.13 -1.553,0.195c-0.49,0.061 -0.496,0.84 0,0.777Z" style="fill:#00af5c;fill-rule:nonzero;"/><path d="M139.746,179.283c8.372,-7.568 16.743,-15.136 25.115,-22.704c1.24,-1.121 -0.598,-2.95 -1.834,-1.833c-8.371,7.568 -16.743,15.136 -25.114,22.704c-1.24,1.121 0.598,2.95 1.833,1.833Z" style="fill:#c6e0f5;fill-rule:nonzero;"/><path d="M168.129,190.864c8.372,-7.568 16.743,-15.136 25.115,-22.705c1.24,-1.121 -0.598,-2.949 -1.834,-1.833c-8.371,7.568 -16.743,15.137 -25.114,22.705c-1.24,1.121 0.598,2.95 1.833,1.833Z" style="fill:#c6e0f5;fill-rule:nonzero;"/><path d="M137.288,199.442c17.546,-17.109 35.092,-34.218 52.638,-51.327c1.196,-1.167 -0.638,-3 -1.834,-1.834c-17.545,17.11 -35.091,34.219 -52.637,51.328c-1.197,1.167 0.637,2.999 1.833,1.833Z" style="fill:#c6e0f5;fill-rule:nonzero;"/><rect x="216.612" y="39.835" width="1.128" height="72.438" style="fill:#35619c;fill-rule:nonzero;"/><path d="M221.774,112.273c0,2.54 -2.059,4.598 -4.598,4.598c-2.539,0 -4.598,-2.058 -4.598,-4.598c0,-2.539 2.059,-4.597 4.598,-4.597c2.539,0 4.598,2.058 4.598,4.597Z" style="fill:#35619c;fill-rule:nonzero;"/><path d="M217.24,127.7c-0.076,0 -1.577,-0.015 -2.673,-1.108c-0.731,-0.73 -1.101,-1.744 -1.101,-3.013c0,-0.336 0.272,-0.609 0.608,-0.609c0.336,0 0.608,0.273 0.608,0.609c0,0.934 0.251,1.658 0.745,2.151c0.736,0.734 1.803,0.753 1.813,0.753c1.717,0 3.112,-1.396 3.112,-3.111c0,-1.716 -1.395,-3.111 -3.111,-3.111c-0.336,0 -0.608,-0.273 -0.608,-0.609l0,-3.38c0,-0.337 0.272,-0.609 0.608,-0.609c0.336,0 0.609,0.272 0.609,0.609l0,2.814c2.099,0.297 3.719,2.106 3.719,4.286c0,2.387 -1.941,4.328 -4.328,4.328l-0.001,0Z" style="fill:#35619c;fill-rule:nonzero;"/><path d="M193.093,130.531c-0.233,-0.04 -0.425,-0.226 -0.461,-0.473c-0.046,-0.309 0.167,-0.595 0.476,-0.641l24.889,-3.666c0.309,-0.047 0.595,0.167 0.64,0.475c0.046,0.309 -0.167,0.595 -0.476,0.641l-24.889,3.666c-0.061,0.01 -0.121,0.008 -0.179,-0.002Z" style="fill:#35619c;fill-rule:nonzero;"/><path d="M240.869,138.814c-0.056,-0.01 -0.111,-0.028 -0.164,-0.056l-22.887,-11.949c-0.276,-0.144 -0.383,-0.485 -0.239,-0.761c0.144,-0.277 0.484,-0.385 0.761,-0.24l22.887,11.95c0.276,0.144 0.383,0.485 0.239,0.761c-0.117,0.223 -0.362,0.336 -0.597,0.295Z" style="fill:#35619c;fill-rule:nonzero;"/><path d="M239.002,186.594l-60.956,-10.592c-3.193,-0.555 -5.333,-3.594 -4.778,-6.788l6.099,-35.097c0.555,-3.194 3.594,-5.333 6.788,-4.778l60.955,10.592c3.194,0.555 5.333,3.594 4.778,6.787l-6.099,35.098c-0.555,3.193 -3.594,5.333 -6.787,4.778Z" style="fill:#fff;fill-rule:nonzero;"/><path d="M185.324,130.064c-2.532,0 -4.78,1.822 -5.228,4.401l-6.024,34.668c-0.243,1.397 0.073,2.805 0.889,3.965c0.817,1.16 2.036,1.932 3.433,2.175l60.527,10.516c2.88,0.506 5.637,-1.437 6.139,-4.321l6.024,-34.668c0.243,-1.397 -0.073,-2.806 -0.889,-3.965c-0.816,-1.16 -2.036,-1.932 -3.432,-2.175l-60.527,-10.518c-0.306,-0.053 -0.611,-0.078 -0.912,-0.078Zm54.509,57.361c-0.389,0 -0.783,-0.033 -1.18,-0.102l-60.525,-10.517c-1.807,-0.314 -3.383,-1.313 -4.439,-2.812c-1.055,-1.5 -1.463,-3.321 -1.149,-5.128l6.024,-34.668c0.648,-3.729 4.21,-6.235 7.938,-5.588l60.526,10.517c1.807,0.314 3.384,1.312 4.439,2.812c1.055,1.499 1.464,3.32 1.151,5.127l-6.024,34.668c-0.581,3.334 -3.487,5.69 -6.761,5.691Z" style="fill:#35619c;fill-rule:nonzero;"/><path d="M238.545,182.793l-58.786,-10.215c-2.041,-0.354 -3.407,-2.295 -3.053,-4.336l5.569,-32.05c0.355,-2.04 2.296,-3.407 4.337,-3.053l58.786,10.215c2.04,0.355 3.407,2.296 3.052,4.337l-5.569,32.049c-0.354,2.041 -2.296,3.408 -4.336,3.053Z" style="fill:#9fc6ea;fill-rule:nonzero;"/><path d="M238.54,182.003c0.818,0.141 1.645,-0.044 2.324,-0.521c0.68,-0.478 1.133,-1.193 1.274,-2.011l5.522,-31.777c0.294,-1.689 -0.843,-3.304 -2.532,-3.597l-58.512,-10.168c-1.687,-0.291 -3.304,0.843 -3.599,2.533l-5.521,31.776c-0.142,0.819 0.043,1.644 0.522,2.323c0.478,0.68 1.192,1.133 2.011,1.275l58.511,10.167Zm0.543,1.603c-0.268,0 -0.539,-0.023 -0.808,-0.07l-58.512,-10.168c-1.228,-0.213 -2.3,-0.892 -3.017,-1.911c-0.718,-1.019 -0.996,-2.256 -0.782,-3.484l5.521,-31.777c0.44,-2.535 2.858,-4.242 5.397,-3.799l58.511,10.167c2.536,0.441 4.241,2.861 3.8,5.397l-5.521,31.775c-0.214,1.229 -0.893,2.3 -1.912,3.018c-0.795,0.56 -1.724,0.852 -2.677,0.852Z" style="fill:#33619d;fill-rule:nonzero;"/><path d="M210.657,177.947l15.212,-13.941l8.418,18.047l-23.63,-4.106Z" style="fill:#fff;fill-rule:nonzero;"/><path d="M211.786,177.617l21.61,3.756l-7.699,-16.506l-13.911,12.75Zm23.391,5.117l-25.648,-4.456l16.51,-15.131l9.138,19.587Z" style="fill:#35619c;fill-rule:nonzero;"/><path d="M180.58,172.721l26.967,-24.716l14.925,31.995l-41.892,-7.279Z" style="fill:#fff;fill-rule:nonzero;"/><path d="M181.707,172.391l39.875,6.929l-14.206,-30.455l-25.669,23.526Zm41.656,8.29l-43.911,-7.63l28.265,-25.905l15.646,33.535Z" style="fill:#35619c;fill-rule:nonzero;"/><path d="M239.614,152.691c-0.357,2.052 -2.309,3.427 -4.361,3.07c-2.052,-0.357 -3.426,-2.309 -3.07,-4.361c0.357,-2.052 2.309,-3.426 4.361,-3.07c2.052,0.357 3.427,2.309 3.07,4.361Z" style="fill:#fff;fill-rule:nonzero;"/><path d="M235.892,148.792c-0.665,0 -1.312,0.203 -1.866,0.594c-0.711,0.5 -1.184,1.247 -1.333,2.103c-0.148,0.856 0.046,1.718 0.545,2.429c0.5,0.71 1.248,1.183 2.104,1.332c0.85,0.149 1.717,-0.044 2.428,-0.545c0.711,-0.5 1.184,-1.247 1.333,-2.103c0.307,-1.767 -0.881,-3.454 -2.648,-3.761c-0.188,-0.033 -0.376,-0.049 -0.563,-0.049Zm0.015,7.544c-0.246,0 -0.495,-0.021 -0.744,-0.064c-2.33,-0.405 -3.896,-2.63 -3.491,-4.96c0.196,-1.13 0.82,-2.115 1.758,-2.774c0.935,-0.659 2.072,-0.915 3.203,-0.719c1.128,0.196 2.114,0.82 2.773,1.757c0.659,0.937 0.914,2.075 0.718,3.204c-0.195,1.129 -0.819,2.114 -1.757,2.774c-0.73,0.514 -1.584,0.782 -2.46,0.782Z" style="fill:#35619c;fill-rule:nonzero;"/><rect x="207.279" y="37.398" width="56.527" height="6.221" style="fill:#9fc6ea;fill-rule:nonzero;"/><path d="M296.02,164.146l15.054,0l0,-162.207l-15.054,0l0,162.207Zm16.91,1.857l-18.766,0l0,-165.92l18.766,0l0,165.92Z" style="fill:#35619c;fill-rule:nonzero;"/><path d="M296.28,16.414l14.534,0l0,-14.533l-14.534,0l0,14.533Zm16.415,1.881l-18.295,0l0,-18.295l18.295,0l0,18.295Z" style="fill:#35619c;fill-rule:nonzero;"/><path d="M311.089,18.019l-16.414,-16.414l1.33,-1.329l16.414,16.414l-1.33,1.329Z" style="fill:#35619c;fill-rule:nonzero;"/><path d="M296.005,18.019l-1.33,-1.329l16.414,-16.414l1.33,1.329l-16.414,16.414Z" style="fill:#35619c;fill-rule:nonzero;"/><path d="M296.28,32.828l14.534,0l0,-14.533l-14.534,0l0,14.533Zm16.415,1.881l-18.295,0l0,-18.295l18.295,0l0,18.295Z" style="fill:#35619c;fill-rule:nonzero;"/><path d="M311.089,34.433l-16.414,-16.414l1.33,-1.329l16.414,16.414l-1.33,1.329Z" style="fill:#35619c;fill-rule:nonzero;"/><path d="M296.005,34.433l-1.33,-1.329l16.414,-16.414l1.33,1.329l-16.414,16.414Z" style="fill:#35619c;fill-rule:nonzero;"/><path d="M296.28,49.243l14.534,0l0,-14.534l-14.534,0l0,14.534Zm16.415,1.88l-18.295,0l0,-18.295l18.295,0l0,18.295Z" style="fill:#35619c;fill-rule:nonzero;"/><path d="M311.089,50.848l-16.414,-16.415l1.33,-1.329l16.414,16.414l-1.33,1.33Z" style="fill:#35619c;fill-rule:nonzero;"/><path d="M296.005,50.848l-1.33,-1.33l16.414,-16.414l1.33,1.329l-16.414,16.415Z" style="fill:#35619c;fill-rule:nonzero;"/><path d="M296.28,65.657l14.534,0l0,-14.534l-14.534,0l0,14.534Zm16.415,1.881l-18.295,0l0,-18.295l18.295,0l0,18.295Z" style="fill:#35619c;fill-rule:nonzero;"/><path d="M311.089,67.262l-16.414,-16.414l1.33,-1.33l16.414,16.414l-1.33,1.33Z" style="fill:#35619c;fill-rule:nonzero;"/><path d="M296.005,67.262l-1.33,-1.33l16.414,-16.414l1.33,1.33l-16.414,16.414Z" style="fill:#35619c;fill-rule:nonzero;"/><path d="M296.28,82.071l14.534,0l0,-14.533l-14.534,0l0,14.533Zm16.415,1.881l-18.295,0l0,-18.295l18.295,0l0,18.295Z" style="fill:#35619c;fill-rule:nonzero;"/><path d="M311.089,83.676l-16.414,-16.414l1.33,-1.33l16.414,16.415l-1.33,1.329Z" style="fill:#35619c;fill-rule:nonzero;"/><path d="M296.005,83.676l-1.33,-1.329l16.414,-16.415l1.33,1.33l-16.414,16.414Z" style="fill:#35619c;fill-rule:nonzero;"/><path d="M296.28,98.486l14.534,0l0,-14.534l-14.534,0l0,14.534Zm16.415,1.88l-18.295,0l0,-18.295l18.295,0l0,18.295Z" style="fill:#35619c;fill-rule:nonzero;"/><path d="M311.089,100.091l-16.414,-16.415l1.33,-1.329l16.414,16.414l-1.33,1.33Z" style="fill:#35619c;fill-rule:nonzero;"/><path d="M296.005,100.091l-1.33,-1.33l16.414,-16.414l1.33,1.329l-16.414,16.415Z" style="fill:#35619c;fill-rule:nonzero;"/><path d="M296.28,114.9l14.534,0l0,-14.534l-14.534,0l0,14.534Zm16.415,1.881l-18.295,0l0,-18.295l18.295,0l0,18.295Z" style="fill:#35619c;fill-rule:nonzero;"/><path d="M311.089,116.505l-16.414,-16.414l1.33,-1.33l16.414,16.414l-1.33,1.33Z" style="fill:#35619c;fill-rule:nonzero;"/><path d="M296.005,116.505l-1.33,-1.33l16.414,-16.414l1.33,1.33l-16.414,16.414Z" style="fill:#35619c;fill-rule:nonzero;"/><path d="M296.28,131.314l14.534,0l0,-14.533l-14.534,0l0,14.533Zm16.415,1.881l-18.295,0l0,-18.295l18.295,0l0,18.295Z" style="fill:#35619c;fill-rule:nonzero;"/><path d="M311.089,132.919l-16.414,-16.414l1.33,-1.33l16.414,16.415l-1.33,1.329Z" style="fill:#35619c;fill-rule:nonzero;"/><path d="M296.005,132.919l-1.33,-1.329l16.414,-16.415l1.33,1.33l-16.414,16.414Z" style="fill:#35619c;fill-rule:nonzero;"/><path d="M296.28,147.728l14.534,0l0,-14.533l-14.534,0l0,14.533Zm16.415,1.881l-18.295,0l0,-18.295l18.295,0l0,18.295Z" style="fill:#35619c;fill-rule:nonzero;"/><path d="M311.089,149.334l-16.414,-16.415l1.33,-1.329l16.414,16.414l-1.33,1.33Z" style="fill:#35619c;fill-rule:nonzero;"/><path d="M296.005,149.334l-1.33,-1.33l16.414,-16.414l1.33,1.329l-16.414,16.415Z" style="fill:#35619c;fill-rule:nonzero;"/><path d="M296.28,164.143l14.534,0l0,-14.534l-14.534,0l0,14.534Zm16.415,1.88l-18.295,0l0,-18.295l18.295,0l0,18.295Z" style="fill:#35619c;fill-rule:nonzero;"/><path d="M311.089,165.749l-16.414,-16.415l1.33,-1.33l16.414,16.414l-1.33,1.331Z" style="fill:#35619c;fill-rule:nonzero;"/><path d="M296.005,165.749l-1.33,-1.331l16.414,-16.414l1.33,1.33l-16.414,16.415Z" style="fill:#35619c;fill-rule:nonzero;"/><path d="M328.942,32.581l14.533,0l0,-14.534l-14.533,0l0,14.534Zm16.414,1.881l-18.295,0l0,-18.295l18.295,0l0,18.295Z" style="fill:#35619c;fill-rule:nonzero;"/><path d="M328.666,34.186l-1.33,-1.33l16.414,-16.414l1.331,1.33l-16.415,16.414Z" style="fill:#35619c;fill-rule:nonzero;"/><path d="M343.75,34.186l-16.414,-16.414l1.33,-1.33l16.415,16.414l-1.331,1.33Z" style="fill:#35619c;fill-rule:nonzero;"/><path d="M312.527,32.581l14.534,0l0,-14.534l-14.534,0l0,14.534Zm16.415,1.881l-18.295,0l0,-18.295l18.295,0l0,18.295Z" style="fill:#35619c;fill-rule:nonzero;"/><path d="M312.252,34.186l-1.33,-1.33l16.414,-16.414l1.33,1.33l-16.414,16.414Z" style="fill:#35619c;fill-rule:nonzero;"/><path d="M327.336,34.186l-16.414,-16.414l1.33,-1.33l16.414,16.414l-1.33,1.33Z" style="fill:#35619c;fill-rule:nonzero;"/><path d="M296.113,32.581l14.534,0l0,-14.534l-14.534,0l0,14.534Zm16.414,1.881l-18.295,0l0,-18.295l18.295,0l0,18.295Z" style="fill:#35619c;fill-rule:nonzero;"/><path d="M279.699,32.581l14.533,0l0,-14.534l-14.533,0l0,14.534Zm16.414,1.881l-18.295,0l0,-18.295l18.295,0l0,18.295Z" style="fill:#35619c;fill-rule:nonzero;"/><path d="M279.423,34.186l-1.329,-1.33l16.414,-16.414l1.329,1.33l-16.414,16.414Z" style="fill:#35619c;fill-rule:nonzero;"/><path d="M294.508,34.186l-16.414,-16.414l1.329,-1.33l16.414,16.414l-1.329,1.33Z" style="fill:#35619c;fill-rule:nonzero;"/><path d="M263.284,32.581l14.534,0l0,-14.534l-14.534,0l0,14.534Zm16.415,1.881l-18.295,0l0,-18.295l18.295,0l0,18.295Z" style="fill:#35619c;fill-rule:nonzero;"/><path d="M263.009,34.186l-1.33,-1.33l16.415,-16.414l1.329,1.33l-16.414,16.414Z" style="fill:#35619c;fill-rule:nonzero;"/><path d="M278.094,34.186l-16.415,-16.414l1.33,-1.33l16.414,16.414l-1.329,1.33Z" style="fill:#35619c;fill-rule:nonzero;"/><path d="M246.87,32.581l14.534,0l0,-14.534l-14.534,0l0,14.534Zm16.414,1.881l-18.295,0l0,-18.295l18.295,0l0,18.295Z" style="fill:#35619c;fill-rule:nonzero;"/><path d="M245.93,34.462l-16.415,0c-0.38,0 -0.723,-0.229 -0.868,-0.581c-0.146,-0.351 -0.065,-0.756 0.204,-1.025l16.414,-16.414l1.33,1.33l-14.81,14.809l13.755,0l16.139,-16.139l1.33,1.33l-16.414,16.414c-0.177,0.176 -0.416,0.276 -0.665,0.276Z" style="fill:#35619c;fill-rule:nonzero;"/><path d="M261.679,34.186l-16.414,-16.414l1.33,-1.33l16.414,16.414l-1.33,1.33Z" style="fill:#35619c;fill-rule:nonzero;"/><path d="M296.097,182.417l14.94,0l0,-14.534l-14.94,0l0,14.534Zm16.873,1.88l-18.806,0l0,-18.294l18.806,0l0,18.294Z" style="fill:#35619c;fill-rule:nonzero;"/><path d="M311.32,184.022l-16.872,-16.414l1.366,-1.329l16.873,16.413l-1.367,1.33Z" style="fill:#35619c;fill-rule:nonzero;"/><path d="M295.814,184.022l-1.366,-1.33l16.872,-16.413l1.367,1.329l-16.873,16.414Z" style="fill:#35619c;fill-rule:nonzero;"/><path d="M296.097,248.074l14.94,0l0,-14.534l-14.94,0l0,14.534Zm16.873,1.88l-18.806,0l0,-18.294l18.806,0l0,18.294Z" style="fill:#35619c;fill-rule:nonzero;"/><path d="M311.32,249.679l-16.872,-16.414l1.366,-1.33l16.873,16.414l-1.367,1.33Z" style="fill:#35619c;fill-rule:nonzero;"/><path d="M295.814,249.679l-1.366,-1.33l16.872,-16.414l1.367,1.33l-16.873,16.414Z" style="fill:#35619c;fill-rule:nonzero;"/><path d="M296.097,197.276l14.94,0l0,-14.534l-14.94,0l0,14.534Zm16.873,1.88l-18.806,0l0,-18.295l18.806,0l0,18.295Z" style="fill:#35619c;fill-rule:nonzero;"/><path d="M311.32,198.881l-16.872,-16.415l1.366,-1.329l16.873,16.414l-1.367,1.33Z" style="fill:#35619c;fill-rule:nonzero;"/><path d="M295.814,198.881l-1.366,-1.33l16.872,-16.414l1.367,1.329l-16.873,16.415Z" style="fill:#35619c;fill-rule:nonzero;"/><path d="M296.097,213.69l14.94,0l0,-14.534l-14.94,0l0,14.534Zm16.873,1.88l-18.806,0l0,-18.294l18.806,0l0,18.294Z" style="fill:#35619c;fill-rule:nonzero;"/><path d="M311.32,215.295l-16.872,-16.414l1.366,-1.33l16.873,16.414l-1.367,1.33Z" style="fill:#35619c;fill-rule:nonzero;"/><path d="M295.814,215.295l-1.366,-1.33l16.872,-16.414l1.367,1.33l-16.873,16.414Z" style="fill:#35619c;fill-rule:nonzero;"/><path d="M296.097,230.104l14.94,0l0,-14.534l-14.94,0l0,14.534Zm16.873,1.88l-18.806,0l0,-18.294l18.806,0l0,18.294Z" style="fill:#35619c;fill-rule:nonzero;"/><path d="M311.32,231.709l-16.872,-16.414l1.366,-1.33l16.873,16.414l-1.367,1.33Z" style="fill:#35619c;fill-rule:nonzero;"/><path d="M295.814,231.709l-1.366,-1.33l16.872,-16.414l1.367,1.33l-16.873,16.414Z" style="fill:#35619c;fill-rule:nonzero;"/><path d="M103.097,99.554c2.002,0 2.006,-3.111 0,-3.111c-2.002,0 -2.005,3.111 0,3.111Z" style="fill:#33619d;fill-rule:nonzero;"/><path d="M271.795,67.059c2.002,0 2.006,-3.111 0,-3.111c-2.002,0 -2.005,3.111 0,3.111Z" style="fill:#33619d;fill-rule:nonzero;"/><path d="M341.625,176.816c0.231,0 0.461,0 0.692,0" style="fill:#33619d;fill-rule:nonzero;"/><path d="M341.625,178.372c0.231,0 0.461,0 0.692,0c0.813,0 1.593,-0.715 1.555,-1.556c-0.037,-0.842 -0.683,-1.555 -1.555,-1.555c-0.231,0 -0.461,0 -0.692,0c-0.813,0 -1.593,0.715 -1.555,1.555c0.037,0.843 0.683,1.556 1.555,1.556Z" style="fill:#33619d;fill-rule:nonzero;"/><path d="M41.564,201.188c2.001,0 2.005,-3.111 0,-3.111c-2.002,0 -2.006,3.111 0,3.111Z" style="fill:#33619d;fill-rule:nonzero;"/><path d="M190.212,51.849c2.002,0 2.005,-3.112 0,-3.112c-2.002,0 -2.005,3.112 0,3.112Z" style="fill:#33619d;fill-rule:nonzero;"/></svg>