<svg width="328" height="436" viewBox="0 0 328 436" fill="none" xmlns="http://www.w3.org/2000/svg">
<path d="M133.465 158.543L162.504 129.504L191.547 158.547L162.508 187.586L133.465 158.543Z" fill="#FF672F"/>
<path fill-rule="evenodd" clip-rule="evenodd" d="M-0.556396 0V282.983C-0.556396 342.062 108.354 409.362 163.498 436C218.643 409.362 327.553 342.062 327.553 282.983V0H-0.556396ZM286.187 282.983C285.602 296.14 263.359 332.865 181.588 379.873V221.433L227.114 175.907H286.187V282.983ZM224.411 138.48H286.187V39.486H181.588V95.6563L224.411 138.48ZM144.161 94.9187V39.486H40.8099V138.48H100.6L144.161 94.9187ZM97.8975 175.907H40.8099V282.983C41.3916 296.073 63.4114 332.49 144.161 379.154V222.17L97.8975 175.907ZM133.465 158.545L162.506 129.504L191.547 158.545L162.506 187.585L133.465 158.545Z" fill="#073F80"/>
</svg>
