<?xml version="1.0" encoding="UTF-8" standalone="no"?><!DOCTYPE svg PUBLIC "-//W3C//DTD SVG 1.1//EN" "http://www.w3.org/Graphics/SVG/1.1/DTD/svg11.dtd"><svg width="100%" height="100%" viewBox="0 0 1871 2134" version="1.1" xmlns="http://www.w3.org/2000/svg" xmlns:xlink="http://www.w3.org/1999/xlink" xml:space="preserve" style="fill-rule:evenodd;clip-rule:evenodd;stroke-linejoin:round;stroke-miterlimit:1.41421;"><g><path d="M1136.2,820.28l-177.666,165.319l-164.865,-332.531l85.308,-191.231c21.593,-38.336 56.824,-38.409 78.417,0l178.806,358.443Z" style="fill:#ffa000;fill-rule:nonzero;"/><path d="M958.531,985.594l-663.928,617.637l499.063,-950.168l164.865,332.531Z" style="fill:#f57f17;fill-rule:nonzero;"/><path d="M1330.52,567.589c31.74,-30.507 64.555,-20.102 72.917,23.124l172.815,1004.24l-572.875,343.338c-20.048,11.07 -73.137,15.872 -73.137,15.872c0,0 -48.458,-5.794 -66.926,-16.043l-568.729,-334.928l1035.93,-1035.61Z" style="fill:#ffca28;fill-rule:nonzero;"/><path d="M793.666,653.063l-499.063,950.168l222.29,-1388.7c8.186,-43.26 32.811,-47.426 54.781,-9.241l221.992,447.769Z" style="fill:#ffa000;fill-rule:nonzero;"/></g></svg>