<svg width="177" height="219" viewBox="0 0 177 219" fill="none" xmlns="http://www.w3.org/2000/svg">
<path d="M142.1 75.7L159.3 109.6L146.2 165.1L115.1 139.7L120.6 99C120.6 99 142.1 75.7 142.1 75.7Z" fill="white"/>
<path d="M96.2 64.3C92.6 64.3 89.7 61.4 89.7 57.8V6.7C89.7 3.1 92.6 0.199997 96.2 0.199997C99.8 0.199997 102.7 3.1 102.7 6.7V57.8C102.6 61.4 99.7 64.3 96.2 64.3Z" fill="#15003E"/>
<path d="M106.6 64.3H86.5C82.9 64.2 80.1 61.3 80.1 57.7C80.2 54.2 83 51.4 86.5 51.3H106.6C110.2 51.4 113 54.3 113 57.9C112.9 61.5 110 64.3 106.6 64.3Z" fill="#15003E"/>
<path d="M142.1 75.7L163.4 55.6C147.1 39.3 124.5 29.2 99.7 29.2C49.9 29.2 9.5 69.6 9.5 119.4C9.5 169.2 49.9 209.6 99.7 209.6C118.3 209.6 134.6 216.4 148.9 206.8L166.7 209.3L166.2 180.3L115.1 139.8L126.1 88.1L142.1 75.7Z" fill="white"/>
<path d="M99.7 218.4C45.1 218.4 0.699951 174 0.699951 119.4C0.699951 64.8 45.1 20.4 99.7 20.4C126.1 20.4 151 30.7 169.7 49.4L176.1 55.8L148.1 82.1L136 69.2L150.3 55.7C136 44.2 118.3 38 99.6 38C54.8 38 18.3 74.5 18.3 119.3C18.3 164.1 54.8 200.6 99.6 200.6" fill="#15003E"/>
<path d="M149.4 167.5L136.7 155.2C146.1 145.5 151.2 132.8 151.2 119.4C151.2 105.4 145.7 92.2 135.6 82.5L129 76L136.1 69.3L142.2 75.7L148 69.7C161.5 82.8 169 100.5 169 119.3C168.9 137.4 162 154.5 149.4 167.5Z" fill="#0FCE7C"/>
<path d="M79.3999 119.4C79.3999 108.2 88.4999 99 99.7999 99C111 99 120.2 108.1 120.2 119.4C120.2 130.6 111.1 139.8 99.7999 139.8C88.4999 139.7 79.3999 130.6 79.3999 119.4Z" fill="#EFF4EE"/>
<path d="M99.7 107.9C93.4 107.9 88.2 113.1 88.2 119.4C88.2 125.7 93.4 130.9 99.7 130.9C106 130.9 111.2 125.7 111.2 119.4C111.2 113 106.1 107.9 99.7 107.9ZM99.7 148.6C83.6 148.6 70.4999 135.5 70.4999 119.4C70.4999 103.3 83.6 90.2 99.7 90.2C115.8 90.2 128.9 103.3 128.9 119.4C128.9 135.5 115.8 148.6 99.7 148.6ZM163.5 55.6L112 103.2Z" fill="#15003E"/>
<path d="M157.5 49.1L169.5 62.1L118 109.7L106 96.7L157.5 49.1Z" fill="#15003E"/>
<path d="M109.3 137.3L146.3 165.1L166.3 180.1V218.3L126.2 216.4" fill="white"/>
<path d="M175.1 218.4H98.1V200.7H157.4V184.6L104 144.4L114.6 130.3L175.1 175.8V218.4Z" fill="#15003E"/>
<path d="M65.3999 82.2C61.7999 82.2 58.8999 79.3 58.8999 75.7V6.7C58.9999 3.1 61.8999 0.300003 65.4999 0.300003C68.9999 0.400003 71.7999 3.2 71.8999 6.7V75.7C71.8999 79.3 68.9999 82.2 65.3999 82.2Z" fill="#15003E"/>
</svg>
