<?xml version="1.0" encoding="UTF-8" standalone="no"?><!DOCTYPE svg PUBLIC "-//W3C//DTD SVG 1.1//EN" "http://www.w3.org/Graphics/SVG/1.1/DTD/svg11.dtd"><svg width="100%" height="100%" viewBox="0 0 1871 2134" version="1.1" xmlns="http://www.w3.org/2000/svg" xmlns:xlink="http://www.w3.org/1999/xlink" xml:space="preserve" style="fill-rule:evenodd;clip-rule:evenodd;stroke-linejoin:round;stroke-miterlimit:1.41421;"><clipPath id="_clip1"><rect x="217.292" y="307.581" width="1445.82" height="1467.7"/></clipPath><g clip-path="url(#_clip1)"><g id="g5035"><path id="rect1235" d="M1502.9,604.014c0,-63.101 -51.23,-114.331 -114.331,-114.331l-1056.94,0c-63.1,0 -114.33,51.23 -114.33,114.331l0,1056.94c0,63.101 51.23,114.33 114.33,114.33l1056.94,0c63.101,0 114.331,-51.229 114.331,-114.33l0,-1056.94Z" style="fill:#34a668;"/><path id="path5000" d="M868.587,1120.75l-620.077,620.077c20.366,21.217 48.982,34.456 80.85,34.456l1061.47,0c36.221,0 68.229,-17.093 88.688,-43.597l-610.936,-610.936Z" style="fill:#5c88c5;fill-rule:nonzero;"/><path id="ellipse1239" d="M1302.07,309.764c-198.196,-0.001 -358.865,153.374 -358.866,342.572c0.15,59.068 14.177,117.094 44.759,168.444c9.207,15.043 17.774,30.115 25.447,45.08c7.136,10.728 13.919,21.496 20.318,32.256c7.353,10.194 14.411,20.47 21.147,30.786c28.022,37.848 53.49,74.934 77.81,110.554c16.953,27.287 36,56.47 52.74,85.361c50.562,87.573 85.718,173.095 98.394,297.636c0.011,0.085 0.011,0.171 0.022,0.265c3.876,8.803 11.036,14.236 18.792,14.26c8.626,-0.021 16.427,-6.722 19.886,-17.079c12.899,-123.135 47.875,-208.119 98.085,-295.082c16.74,-28.892 35.787,-58.074 52.74,-85.361c24.321,-35.62 49.788,-72.706 77.811,-110.554c6.735,-10.316 13.793,-20.592 21.147,-30.786c6.399,-10.76 13.181,-21.528 20.317,-32.257c7.673,-14.965 16.25,-30.035 25.458,-45.079c30.493,-51.373 42.778,-109.398 42.857,-168.445c0,-189.197 -160.67,-342.572 -358.865,-342.571l0.001,0Z" style="fill:#dd4b3e;fill-rule:nonzero;"/><ellipse id="path1237" cx="1302.07" cy="652.334" rx="124.671" ry="119.011" style="fill:#802d27;"/><path id="path1241" d="M522.556,615.558c-99.915,0 -180.914,82.425 -180.914,184.098c0,101.673 80.999,184.097 180.914,184.097c65.09,0 102.808,-20.486 135.547,-53.801c32.738,-33.315 44.659,-83.705 44.659,-134.541c0,-7.756 -0.496,-15.463 -1.371,-23.092l-70.559,0l-13.442,0l-92.635,0l0,65.087l103.744,0c-4.215,16.228 -11.361,31.017 -22.617,42.471c-20.157,20.511 -43.383,33.129 -83.459,33.129c-61.518,0 -111.394,-50.75 -111.394,-113.35c0,-62.601 49.876,-113.351 111.394,-113.351c29.927,0 56.012,8.701 76.672,27.658l50.938,-50.938c-0.021,-0.021 -0.064,-0.064 -0.086,-0.086c-33.976,-32.607 -77.431,-47.378 -127.389,-47.378l-0.002,-0.003Zm94.746,121.055c0.021,0.043 0.064,0.107 0.085,0.15l0,-0.064l-0.085,-0.086Z" style="fill:#fff;fill-rule:nonzero;"/><path id="path5005" d="M1054.83,928.847l-170.677,170.677l609.133,609.135c6.138,-13.883 9.607,-29.227 9.607,-45.433l0,-666.65c-10.02,14.439 -19.971,28.853 -29.548,42.88c-16.953,27.287 -36,56.469 -52.74,85.361c-50.21,86.963 -85.186,171.947 -98.085,295.082c-3.459,10.357 -11.261,17.056 -19.887,17.079c-7.755,-0.021 -14.915,-5.456 -18.792,-14.26c-0.011,-0.086 -0.011,-0.171 -0.021,-0.265c-12.676,-124.541 -47.832,-210.063 -98.394,-297.636c-16.741,-28.891 -35.788,-58.074 -52.74,-85.361c-24.32,-35.621 -49.788,-72.706 -77.811,-110.554c-0.011,-0.017 -0.043,-0.043 -0.043,-0.064l-0.002,0.009Z" style="fill:#c3c3c3;fill-rule:nonzero;"/><path id="rect4969" d="M1007.76,855.402l-790.468,790.468l0,17.356c0,62.08 49.988,112.056 112.068,112.056l21.7,0l762.943,-762.942c-18.759,-27.266 -38.085,-55.015 -59.129,-83.438c-6.736,-10.316 -13.794,-20.592 -21.147,-30.786c-6.399,-10.76 -13.182,-21.528 -20.318,-32.256c-1.782,-3.478 -3.773,-6.971 -5.649,-10.458Z" style="fill:#fddc4f;fill-rule:nonzero;"/><path id="path4980" d="M986.68,1124.66l-131.59,131.59l519.03,519.03l16.715,0c62.08,0 112.057,-49.976 112.057,-112.056l0,-22.352l-516.212,-516.212Z" style="fill:#fff;fill-rule:nonzero;"/></g></g></svg>