<svg id="Capa_1" xmlns="http://www.w3.org/2000/svg" viewBox="0 0 130.2 130.3"><style>.st0{fill:#fefefe}.st1{fill:#9d9d9d}</style><path class="st0" d="M65.1 130.2c-20.7 0-41.3 0-62 .1-2.5 0-3.1-.6-3.1-3.1C.1 86.2.1 45.1 0 4 0 1.5.6.9 3.1.9c41.3.1 82.7.1 124 0 2.5 0 3.1.6 3.1 3.1-.1 41.1-.1 82.2 0 123.2 0 2.5-.6 3.1-3.1 3.1-20.7-.1-41.3-.1-62-.1z"/><path class="st1" d="M65 19h55c3.3 0 6.4.2 8.2 3.5 1.8 3.4.2 6-1.7 8.7-18.1 25-36.2 50-54.3 74.9-5 6.9-9 6.9-14 .1C39.9 81.2 21.7 56.1 3.4 31c-1.9-2.6-3.2-5.2-1.5-8.3C3.6 19.5 6.4 19 9.6 19c18.5.1 37 0 55.4 0z"/></svg>