<svg height="512" id="Layer_1" viewBox="0 0 512 512" width="512" xmlns="http://www.w3.org/2000/svg"><linearGradient gradientUnits="userSpaceOnUse" id="SVGID_1_" x1="419.787" x2="71.804" y1="462.851" y2="23.373"><stop offset="0" stop-color="#3b5998"/><stop offset="1" stop-color="#369"/></linearGradient><path d="M256 7.098C118.535 7.098 7.098 118.535 7.098 256S118.535 504.902 256 504.902c1.781 0 3.554-.03 5.326-.067v-164.1h-55.124V271.83h55.124v-41.343c0-56.764 32.041-96.467 82.687-96.467h55.124v68.905h-27.562c-27.535 0-41.343 13.781-41.343 41.343v27.562h68.905l-13.781 68.905h-55.124v152.908C431.44 462.061 504.902 367.611 504.902 256 504.902 118.535 393.465 7.098 256 7.098z" fill="#9e9e9e"/></svg>