<svg id="Capa_1" xmlns="http://www.w3.org/2000/svg" width="533.333" height="533.333" viewBox="0 0 533.333 533.333"><path d="M227.607 426.126c0 39.099-24.161 69.996-92.582 72.487-40.096-22.805-73.693-55.703-97.348-95.242 12.339-30.467 50.881-53.67 94.957-53.184 12.511.13 24.172 2.142 34.763 5.572 29.118 20.242 52.604 32.892 58.501 55.962 1.101 4.67 1.709 9.484 1.709 14.405zM266.667 0C189.614 0 120.21 32.692 71.528 84.947c19.236-10.652 41.947-16.999 66.095-16.999h133.561l-29.846 31.323H206.28c24.738 14.173 37.892 43.358 37.892 75.527 0 29.527-16.362 53.323-39.469 71.384-22.542 17.605-26.819 24.983-26.819 39.966 0 12.781 26.938 31.821 39.323 41.112 43.135 32.351 51.863 52.699 51.863 93.163 0 41.001-35.903 81.824-96.804 95.696 29.348 11.114 61.159 17.213 94.4 17.213 147.275 0 266.667-119.391 266.667-266.666C533.333 119.391 413.942 0 266.667 0zM400 200v66.667h-33.333V200H300v-33.333h66.667V100H400v66.667h66.667V200H400zm-209.496-23.192c6.209 47.279-14.503 77.704-50.486 76.632-36.003-1.084-70.211-34.11-76.427-81.375-6.212-47.286 17.926-83.466 53.922-82.394 35.984 1.08 66.78 39.866 72.991 87.137zm-75.46 157.602c-38.896 0-71.941 13.421-95.23 33.263C7.053 336.518 0 302.417 0 266.667c0-29.566 4.821-58.004 13.704-84.582 3.841 51.793 40.288 91.768 100.506 91.768 4.434 0 8.731-.23 12.955-.533-4.141 7.933-7.095 16.767-7.095 26.032 0 15.61 8.587 24.517 19.202 34.842-8.022-.001-15.766.216-24.228.216z" fill="#9e9e9e" fill-rule="evenodd"/></svg>