<svg id="Capa_1" xmlns="http://www.w3.org/2000/svg" viewBox="0 0 481.5 371.9"><style>.st0{fill:#c04545}.st1{fill:none}.st2{font-family:&amp;apos;Helvetica-Light&amp;apos;}.st3{font-size:50px}.st4{letter-spacing:2}.st5{display:none}.st6{display:inline}.st7{font-size:14px}.st8,.st9{display:inline;fill:#c04545}.st9{display:none}.st10{font-size:25px}.st11{letter-spacing:1}</style><path d="M182.1 223.7c-2 2.8-4.3 5.9-6.8 9.4-.5-3.6-.5-6.7-1.3-9.5-2.1-7.8-6.3-14.6-10.7-21.3-3.2-4.8-6.5-9.4-9.1-14.5-3.8-7.3-4.2-14.9-.5-22.5.7-1.3.5-3.1.8-4.8-9.9-.6-18.7-3.6-24.8-12.1 6.7 2.9 12.7.2 18.6-2.4 1.7-.7 3.1-2 4.5-3.5-5.3-.1-10.1-.8-14.5-3.5-4.2-2.6-8-5.6-10.9-10 12.5 1.3 23.3-1.4 31.2-12.3-3.2-.8-6-1.3-8.9-2.1-12.4-3.4-22-10-25.8-23-1.7-5.9-1.7-11.9-.7-17.9 0-.3.3-.5.3-.4 1.9 3.2 3.7 6.8 6 9.9 3.8 5 9.1 6.8 15.3 6.6 8.7-.3 16.2-3.9 23.5-8.2 7.7-4.6 15.8-7.9 24.9-8.9 15.3-1.6 28.4 3.5 39.9 13.2 2.8 2.4 5.4 5.1 8 7.6 3.7-3.3 7.2-6.9 11.3-10 7.6-5.9 16.2-9.6 25.9-10.7 13.5-1.7 25.5 2.4 36.7 9.4 5.6 3.5 11.6 6 18.1 7.2 11.3 2.2 20.4-2.9 24.3-13.7.3-1 .8-1.9 1.3-3.1 2.1 7.4 1.5 14.4-.9 21.1-3.5 9.8-10.8 15.9-20.4 19.4-4.3 1.6-8.8 2.6-13.1 3.8 4.4 8.4 17 14.1 31 12-7.3 8.8-15.3 14.9-27.2 13-.1.3-.1.6-.2.9 4 1.9 7.9 4 12.1 5.6 4.2 1.6 8.6 2 13.4-.6-4.8 7.2-12.6 12.2-27.9 13 .9 1.2 1.8 2.3 2.5 3.5 4.4 7.3 4.3 15 .8 22.5-2.6 5.3-6.1 10.2-9.4 15.2-4.6 7-9 14-11.1 22.2-.7 2.7-.6 5.5-.9 8.4-3.3-2.2-5.6-5.4-6.8-9.3-1.7 2.4-3.3 4.9-5.1 7.1-3.5 4.3-8 7.4-12.9 10-4.6 2.5-9.5 4.5-14.1 7-4.4 2.4-8.1 5.7-10.7 10-1.2 1.9-1.8 4.2-2.6 6.2-1.3-4.7-1.4-9.6.2-14.7-4.2 5.1-7.7 10.5-9.8 16.7-2 6.1-3.3 12.5-4.5 17.2-.4-11.7-5.5-23.2-13.5-33.6.9 4.7 1.2 9.3 0 13.9-1.2-2.4-2-5.1-3.6-7.2-4.1-5.6-9.9-9.1-16.3-11.8-7.3-3-14.1-6.9-19.6-12.7-2.6-2.5-4.3-5.5-6-7.7zm64-121.9c8.9 7.6 19.2 12.4 30.7 14.8 11.4 2.4 22.9 2.5 34.3.3-11.3.8-22.5-.2-33.6-2.8-11-2.6-21.5-6.7-31.4-12.3zm-10-.1c-7.4 4.3-15.2 7.9-23.5 10.2-8.2 2.2-16.6 3.8-24.3 5.6 12.5 3.7 39.6-6.8 47.8-15.8zm73.4-13.2c-11.1-7.3-34.4-7.7-41-1 13.8-5.4 27.5-4.3 41 1zM212 86.8c-9.7-5.9-26.7-5.6-38.7 1.4 12.7-4.8 25.6-5.8 38.7-1.4zm37.6 161.6c0-.4.1-.8.1-1.2.1-5.1 3.8-10.8 9-12.3 3-.9 5.8-2.8 8.5-4.4 1-.6 1.8-1.8 2.6-2.7-3.7 2-7.3 4-11 5.1-6.7 2-9.9 7.6-9.2 15.5zm-16.8-2.3c.9-5-2.8-11.4-7.9-12.7-5-1.3-9.4-3.3-13-6.9 2.5 4.1 6.2 6.8 10.6 8.1 6 1.7 9.1 5.6 10.3 11.5zm67.5-167.3c-12.3-5.2-29.3-3.3-42.7 6 13.5-7.3 27.6-9.8 42.7-6zM182 78.7c13.8-3.4 27.1-1.5 39.9 4.6-12.7-7.3-25.9-9.7-39.9-4.6zm103.2 33c-6.6-1.4-13.2-2.9-19.9-4.3 6.5 2.4 13.1 4.5 19.9 4.3zm-88.2 0c3.1.7 16.7-2.2 19.2-4.2-6.4 1.4-13 2.8-19.2 4.2zm8.4 122.5c-3.9-3.2-7.9-6.4-11.7-9.5 2.6 4.7 7.1 7.2 11.7 9.5zm83.6-9.8c-3.7 3-7.7 6.3-11.8 9.7 5-2.2 9.2-5.4 11.8-9.7z"/><path class="st0" d="M460.6 154.7c-1.9.7-3.2 1.1-4.5 1.6-13.7 4.9-19.2 12.5-19.4 27-.2 17.3 0 34.6-.2 51.9-.1 8.8-.5 17.7-1.4 26.5-.4 4.1-1.7 8.3-3.4 12.1-3.8 9-11.3 13.6-20.6 15.2-4.8.8-9.8 1-14.7 1.4 0-.2-.1-.4-.1-.6.7-.3 1.4-.7 2.1-1 12.4-5.7 19.1-15.7 19.5-29.1.6-18.2.3-36.4.5-54.6.1-7.8.2-15.6 1.1-23.3 1.6-13 8.2-22.4 21.3-26.2.3-.1.6-.2.9-.4.1-.1.2-.2.7-.6-.8-.3-1.5-.7-2.2-.9-13.6-3.7-19.7-12-21.1-26.7-.6-6.3-.6-12.7-.6-19-.1-17.6.1-35.1-.1-52.7 0-4.6-.5-9.3-1.5-13.8-1.9-9.3-7.8-15.7-16.4-19.6-2.4-1.1-4.8-1.9-7.2-3.4 4 .2 8 .2 11.9.7 3.5.4 7.1 1.1 10.5 2.1 11.7 3.6 17.8 12 19.6 23.7.9 5.8 1.3 11.6 1.4 17.5.2 20.7 0 41.5.3 62.2.1 4.5 1.2 9.2 2.4 13.6 2.4 8.9 9.3 13.1 17.6 15.4.8.3 1.9.5 3.6 1zM88.2 291.6c-10.1.2-20.2 0-29.2-5.3-7.8-4.6-11.5-12-12.8-20.6-.8-5.7-1.3-11.5-1.4-17.2-.2-20.7 0-41.5-.3-62.2-.1-4.6-1.2-9.3-2.4-13.8-2-7.5-7.4-12-14.6-14.5-2-.7-4.1-1.2-6.6-2 2.7-1 5-1.8 7.3-2.7 8.6-3.6 14.5-9.6 15.8-19.1.6-5.1.7-10.2.8-15.3.1-17.1-.2-34.1.1-51.2.2-7.9.8-15.9 2.3-23.7C49.8 30.7 58.5 23.2 72 21.6c4.3-.5 8.6-.8 13.1-.7-1.5.7-3 1.4-4.5 2.2C69.7 29 64 38.5 63.5 50.6c-.6 17.8-.3 35.6-.5 53.4-.1 7.3 0 14.7-.7 21.9-.5 4.9-1.9 9.9-3.8 14.5-3 7.2-8.8 11.7-16.1 14.2-1 .4-2.1.8-3.8 1.4 1.3.5 1.9.8 2.5 1 12.9 3 19.1 11.9 20.8 24.3.7 5.4 1.1 11 1.1 16.5.1 18.8-.1 37.6.1 56.3.1 5.6.7 11.4 2 16.8 2.4 9.7 9.5 15.4 18.4 18.9 1.6.6 3.2 1.2 4.7 1.8z"/><path class="st1" d="M20.3 310.3h431.6v52.2H20.3z"/><text transform="translate(40.575 346.32)"><tspan x="0" y="0" class="st2 st3 st4">bearded</tspan><tspan x="207.8" y="0" class="st0 st2 st3 st4">’n</tspan><tspan x="251.3" y="0" class="st2 st3 st4">coder</tspan></text><path class="st1" d="M159.9 370.8h161.7v13.1H159.9z"/><text transform="translate(159.904 380.886)" class="st5"><tspan x="0" y="0" class="st6 st2 st7">HTML</tspan><tspan x="39.9" y="0" class="st8 st2 st7">CSS</tspan><tspan x="69.1" y="0" class="st6 st2 st7">JAVASCRIPT</tspan></text><path class="st1" d="M112.9 364.3h255.6v22.1H112.9z"/><text transform="translate(112.944 382.283)" class="st9 st2 st10 st11">&amp;lt; /&amp;gt;</text></svg>