<svg id="Capa_1" xmlns="http://www.w3.org/2000/svg" viewBox="0 0 163.8 128.2"><style>.st0{fill:#9e9e9e}.st1{fill:#fdfdfd}.st2{fill:#a1a1a1}</style><path class="st0" d="M11 76.1v-53c4.6-7.1 11.1-9.6 19.5-9.5 23.8.3 47.6.1 71.4.1 2 0 4 0 6 .3 6.4 1 11.2 6.2 11.2 12.7.1 15.5 0 31 .1 46.5 0 4.8-2.4 7.8-6.5 9.7-2.8 1.3-5.8 1.4-8.8 1.4-16.8 0-33.6.1-50.5-.1-4 0-7.4.9-10.8 3-5.8 3.6-11.7 7-17.6 10.4-1.1.6-2.3 2.1-3.5 1-1.1-1-.2-2.5.2-3.8.6-2.3 1-4.6 1.8-6.8 1-2.7.3-3.9-2.5-4.6-4.4-.9-7.8-3.4-10-7.3zm61.1-28.7c.1-4.2-2.9-7.3-7-7.3-3.8 0-6.9 3-7.1 6.8-.1 4 3 7.3 7.1 7.3 4 0 6.9-2.9 7-6.8zm-33.7-7.3c-4-.1-7.4 3.2-7.3 7.2 0 3.7 3.2 6.9 7 7 4.1.1 7.2-3 7.2-7.2-.1-4-3-7-6.9-7zm54 0c-3.9-.2-7.1 2.6-7.4 6.4-.3 4.1 2.6 7.5 6.7 7.7 4.1.2 7.4-2.9 7.4-6.9 0-3.9-2.8-7-6.7-7.2z"/><path class="st1" d="M11 76.1c2.2 4 5.6 6.4 9.9 7.4 2.8.6 3.5 1.9 2.5 4.6-.8 2.2-1.2 4.5-1.8 6.8-.3 1.3-1.2 2.8-.2 3.8 1.2 1.1 2.4-.4 3.5-1 5.9-3.4 11.9-6.8 17.6-10.4 3.4-2.1 6.8-3 10.8-3 16.8.2 33.6.1 50.5.1 3 0 6-.1 8.8-1.4 4.1-1.9 6.5-4.9 6.5-9.7-.1-15.5 0-31-.1-46.5 0-6.5-4.8-11.7-11.2-12.7-2-.3-4-.3-6-.3-23.8 0-47.6.2-71.4-.1-8.3-.3-14.8 2.3-19.4 9.4 0-6.8.1-13.6-.1-20.4 0-2 .3-2.6 2.5-2.6 41.1.1 82.1.1 123.2 0 2.4 0 2.4.8 2.4 2.7-.1 14.5 0 28.9 0 43.4-1.1-1.4-2.1-3-3.5-4-2.2-1.7-5-2.5-7.5-1.5-2.6 1-1.5 3.8-1.5 5.8-.1 10.1 0 20.3-.1 30.4 0 10.2-3.3 13.5-13.4 13.5H52.6c-1.6 0-3.6-.8-4.6 1-1.1 2-.1 3.9 1 5.6 3.1 4.6 7.6 6.2 12.9 6.1h45.9c3.1 0 5.8.7 8.5 2.3 4.8 3 9.8 5.8 15.8 9.3-.8-3.6-1.4-5.8-1.9-8.1-.3-1.4-.8-3.3 1.3-3.7 3.9-.8 5.5-3.9 7.5-6.7 0 9.5-.2 19 .1 28.5.1 3-.6 3.6-3.6 3.6-41.5-.1-83-.1-124.5-.1V76.1z"/><path class="st2" d="M139 96.1c-2 2.8-3.6 5.9-7.5 6.7-2.1.4-1.6 2.2-1.3 3.7.5 2.2 1 4.5 1.9 8.1-5.9-3.5-10.9-6.3-15.8-9.3-2.6-1.7-5.3-2.4-8.5-2.3-15.3.1-30.6 0-45.9 0-5.3 0-9.8-1.5-12.9-6.1-1.1-1.7-2.2-3.6-1-5.6 1-1.7 3-1 4.6-1H113c10.1 0 13.4-3.3 13.4-13.5 0-10.1 0-20.3.1-30.4 0-2-1.1-4.8 1.5-5.8 2.6-.9 5.4-.2 7.5 1.5 1.4 1.1 2.3 2.7 3.5 4v50z"/><path class="st1" d="M72.1 47.4c-.1 3.9-3.1 6.8-7 6.8-4.1 0-7.2-3.2-7.1-7.3.1-3.8 3.2-6.8 7.1-6.8 4.1 0 7.1 3.1 7 7.3zM38.4 40.1c3.9.1 6.8 3.1 6.9 7 0 4.2-3.1 7.2-7.2 7.2-3.8-.1-7-3.3-7-7-.1-4 3.3-7.3 7.3-7.2zM92.4 40.1c3.9.2 6.8 3.3 6.7 7.2-.1 4-3.4 7.1-7.4 6.9-4-.2-7-3.6-6.7-7.7.3-3.8 3.5-6.6 7.4-6.4z"/></svg>