<svg id="Capa_1" xmlns="http://www.w3.org/2000/svg" viewBox="0 0 144 142"><style>.st0{fill:#fefefe}.st1{fill:#9d9d9d}.st2{fill:#fdfdfd}</style><path class="st0" d="M103 129c-32.6 0-65.2-.1-97.8.1-3.8 0-4.2-1.1-4.2-4.4C1 84.9 1.1 45.1.9 5.4.9 1.4 2.1.9 5.6 1c24.8.1 49.6 0 74.4 0 .7 3-1.8 3-3.5 3.7-5 1.8-9.8 4-14.3 7-7.9 5.4-11.6 14-16.5 21.6-.8 1.3-1.6 2.6-2.1 3.9C38.2 50.5 27 57.8 15.4 64.8c-9.7 5.9-9.4 5.9.4 11.6 5.5 3.1 11.1 6.1 16.5 9.3 3.3 1.9 3.9 4.2 2.9 7.9-3.4 11.8 1.9 20.9 13.7 24 7 1.8 12.7-.9 17.7-5.6 4.1-3.8 5.2-4.1 10-1.4 7.1 3.9 14.2 7.9 21.3 12.1 2.2 1.4 5.5 2.4 5.1 6.3z"/><path class="st1" d="M103 129c-9.3-6.5-19.6-11.3-29.3-17.1-2.6-1.6-3.8.2-5.4 1.8-6.3 6.2-13.7 8.7-22.3 5.9-8.4-2.7-13.1-8.7-14.6-17.3-.5-3.1-.1-6.1 1.1-8.8 1.4-3.3.2-4.7-2.5-6.2-7.8-4.3-15.4-8.7-23.1-13-5.7-3.2-5.7-3.5-.4-6.9 3.5-2.2 6.8-4.9 10.5-6.7 12.2-6 20-15.8 26.2-27.6 4.4-8.5 9-17.1 17-23.1 6-4.5 12.9-6.7 19.8-9h14c6.8 1.3 13.7 2.1 19.6 6.5 8.7 6.5 14.2 14.6 14.9 25.7.1 1-.2 2 .5 2.8v14c-.7 10.4-5.3 19.3-11.3 27.4-8.3 11.1-10.2 23.8-10.2 37.1 0 2.2.1 4.3-.1 6.5-.4 3-.8 6-3.3 8.1-.4-.1-.8-.1-1.1-.1z"/><path class="st0" d="M104 129c.7-11.3 1.4-22.6 2-33.9.1-2 .7-3.9 1.7-5.7 7.4-13 16.1-25.2 21.2-39.5 0 25.3 0 50.7.1 76 0 2.5-.6 3.1-3.1 3.1-7.2-.1-14.6 0-21.9 0zM129 36c-.3-.4-.7-.8-.8-1.2C124.1 17.2 112.9 6.6 95.7 2c-.6-.2-1.1-.7-1.7-1 10.8 0 21.5.1 32.3-.1 2.3 0 2.8.5 2.8 2.8-.2 10.8-.1 21.5-.1 32.3z"/><path class="st0" d="M120.3 42.7c.1 6.2-1.7 11.8-4.8 17.1-3.3 5.6-6.2 11.5-10 16.7-5.6 7.8-7.5 16.4-7.5 25.8-.1 13.6-.3 13.5-11.7 7C64.6 97.2 43 85 21.3 72.8c-4.8-2.7-5.1-3.4-.1-5.9 14.3-7.1 24.2-18.2 30.9-32.5 1.7-3.6 3.9-7 6.2-10.3C67 12 79 7.5 93.3 10.2c13.4 2.5 22.2 10.9 26 24.1.3 1 .5 1.9.6 2.9.2 1.9.3 3.7.4 5.5z"/><path class="st2" d="M52.8 112.3c-7.8.1-13.7-6.3-12.8-13.8.4-3.4 1.6-4.9 5.1-2.8 4.7 2.8 9.5 5.4 14.2 8.1 4.2 2.5 4.1 4 0 6.5-2 1.3-4.2 1.9-6.5 2z"/></svg>