<svg id="Capa_1" xmlns="http://www.w3.org/2000/svg" width="512" height="512" viewBox="0 0 512 512"><path d="M256 0C114.615 0 0 114.615 0 256s114.615 256 256 256 256-114.615 256-256S397.385 0 256 0zm147.121 180.544c.146 3.254.221 6.528.221 9.819 0 100.311-76.354 215.982-215.979 215.982-42.868 0-82.768-12.568-116.363-34.106a154.197 154.197 0 0 0 18.108 1.062c35.565 0 68.295-12.138 94.275-32.496-33.217-.611-61.25-22.562-70.912-52.717a75.977 75.977 0 0 0 14.283 1.361 76.05 76.05 0 0 0 19.999-2.662c-34.726-6.977-60.893-37.656-60.893-74.434 0-.32 0-.639.008-.955a75.61 75.61 0 0 0 34.382 9.494c-20.37-13.611-33.77-36.846-33.77-63.184 0-13.911 3.744-26.952 10.278-38.162 37.439 45.927 93.374 76.146 156.462 79.314a76.238 76.238 0 0 1-1.965-17.302c0-41.92 33.99-75.906 75.909-75.906 21.832 0 41.562 9.218 55.408 23.97a152.024 152.024 0 0 0 48.207-18.42c-5.668 17.727-17.705 32.603-33.377 41.997 15.355-1.834 29.984-5.916 43.598-11.952-10.176 15.224-23.045 28.593-37.879 39.297z" fill="#9e9e9e" fill-rule="evenodd"/></svg>